<svg xmlns="http://www.w3.org/2000/svg" width="39.147" height="36.932" viewBox="0 0 39.147 36.932">
    <defs>
        <style>
            .cls-1{fill:#e09f2c}.cls-2{fill:#f7b030}.cls-3{fill:#bd620e}.cls-6{fill:#962523}.cls-8{fill:#a82a27}
        </style>
    </defs>
    <g id="_001-alcohol" transform="translate(-24 -16)">
        <path id="Path_983" d="M76.725 94.155h-4.05A11.579 11.579 0 0 1 72 91.078 11.579 11.579 0 0 1 72.675 88h4.05a11.579 11.579 0 0 1 .675 3.078 11.579 11.579 0 0 1-.675 3.077z" class="cls-1" transform="translate(-43.95 -66.46)"/>
        <path id="Path_984" d="M44.149 171.693H32L36.05 168h4.05z" class="cls-2" transform="translate(-7.325 -140.305)"/>
        <path id="Path_985" d="M32 216h12.149v2.462H32z" class="cls-1" transform="translate(-7.325 -184.612)"/>
        <path id="Path_986" d="M32 424h12.149v3.693a1.3 1.3 0 0 1-1.35 1.231H33.35a1.3 1.3 0 0 1-1.35-1.231z" class="cls-2" transform="translate(-7.325 -376.607)"/>
        <path id="Path_987" d="M32 248h12.149v14.773H32z" class="cls-3" transform="translate(-7.325 -214.149)"/>
        <path id="Path_988" fill="#95573a" d="M73.35 24h2.7a1.3 1.3 0 0 1 1.35 1.231v3.693H72v-3.693A1.3 1.3 0 0 1 73.35 24z" transform="translate(-43.95 -7.384)"/>
        <path id="Path_989" d="M77.4 25.231v1.231H72v-1.231A1.3 1.3 0 0 1 73.35 24h2.7a1.3 1.3 0 0 1 1.35 1.231z" class="cls-3" transform="translate(-43.95 -7.384)"/>
        <path id="Path_990" fill="#35a872" d="M216.752 90.3L215.424 80h-4.05l-1.327 10.3A4.768 4.768 0 0 0 208 94.157v15.966a1.334 1.334 0 0 0 1.391 1.269h8.016a1.334 1.334 0 0 0 1.391-1.269V94.157a4.768 4.768 0 0 0-2.048-3.859z" transform="translate(-168.476 -59.076)"/>
        <path id="Path_991" d="M374.749 95.8V88H370.7v7.8a4.3 4.3 0 0 0-2.7 3.9v17.851a1.3 1.3 0 0 0 1.35 1.231h6.75a1.3 1.3 0 0 0 1.35-1.231V99.7a4.3 4.3 0 0 0-2.7-3.893z" class="cls-6" transform="translate(-314.978 -66.46)"/>
        <path id="Path_992" fill="#c7312e" d="M400 88h4.05v4.924H400z" transform="translate(-344.278 -66.46)"/>
        <path id="Path_993" d="M384 56h6.749v2.462H384z" class="cls-8" transform="translate(-329.628 -36.922)"/>
        <path id="Path_994" d="M393.35 24h2.7a1.3 1.3 0 0 1 1.35 1.231v1.231H392v-1.231A1.3 1.3 0 0 1 393.35 24z" class="cls-6" transform="translate(-336.953 -7.384)"/>
        <path id="Path_995" d="M368 232h9.449v16H368z" class="cls-8" transform="translate(-314.978 -199.38)"/>
        <rect id="Rectangle_10" width="4" height="9" class="cls-2" rx="2" transform="translate(29 36.376)"/>
        <ellipse id="Ellipse_5" cx="3" cy="4.5" fill="#e9eef2" rx="3" ry="4.5" transform="translate(42 36.376)"/>
        <path id="Path_996" fill="#e1e3e6" d="M238.749 26.462H232l.419-1.53a1.333 1.333 0 0 1 1.31-.932h3.292a1.333 1.333 0 0 1 1.31.932z" transform="translate(-190.452 -7.384)"/>
        <path id="Path_997" fill="#2e9163" d="M240 56h5.4v1.231a1.3 1.3 0 0 1-1.35 1.231h-2.7a1.3 1.3 0 0 1-1.35-1.231z" transform="translate(-197.777 -36.922)"/>
        <path id="Path_998" d="M24 31.388v19.7a1.944 1.944 0 0 0 2.025 1.847h9.449a1.944 1.944 0 0 0 2.026-1.849v-19.7a.588.588 0 0 0-.2-.436l-3.761-3.43a10.789 10.789 0 0 0 .584-2.906 9.72 9.72 0 0 0-.456-2.5.623.623 0 0 0 .456-.582v-3.685A1.944 1.944 0 0 0 32.1 16h-2.7a1.944 1.944 0 0 0-2.025 1.847v3.693a.623.623 0 0 0 .456.582 9.72 9.72 0 0 0-.456 2.5 10.789 10.789 0 0 0 .584 2.906L24.2 30.953a.588.588 0 0 0-.2.435zm4.725-13.542a.648.648 0 0 1 .675-.616h2.7a.648.648 0 0 1 .675.616v.616h-4.05zm0 1.847h4.05v1.231h-4.05zm.5 2.462h3.052a9.457 9.457 0 0 1 .5 2.462 9.481 9.481 0 0 1-.5 2.462h-3.054a9.457 9.457 0 0 1-.5-2.462 9.481 9.481 0 0 1 .5-2.462zM29 28.311h3.491l2.7 2.462H26.3zM25.35 32h10.8v1.231h-10.8zm0 2.462h10.8v13.546h-10.8zm0 14.773h10.8v1.847a.648.648 0 0 1-.675.616h-9.45a.648.648 0 0 1-.675-.616z"/>
        <path id="Path_999" d="M200 35.082v15.966a1.984 1.984 0 0 0 2.066 1.885h8.016a1.984 1.984 0 0 0 2.066-1.885V35.082a5.317 5.317 0 0 0-2.086-4.177l-1.266-9.24a1.772 1.772 0 0 0 .653-1.356v-.616a.7.7 0 0 0 .532-.237.574.574 0 0 0 .123-.528l-.419-1.53A2 2 0 0 0 207.72 16h-3.292a2 2 0 0 0-1.964 1.4l-.419 1.53a.574.574 0 0 0 .123.528.7.7 0 0 0 .532.237v.616a1.772 1.772 0 0 0 .653 1.356l-1.267 9.24A5.317 5.317 0 0 0 200 35.082zm3.774-17.382a.666.666 0 0 1 .655-.466h3.292a.666.666 0 0 1 .655.466l.21.765h-5.021zm4.325 2v.616a.648.648 0 0 1-.675.616h-2.7a.648.648 0 0 1-.675-.616V19.7zm-4.957 12a.6.6 0 0 0 .25-.406l1.253-9.145H207.503l1.253 9.145a.6.6 0 0 0 .25.406 4.161 4.161 0 0 1 1.792 3.377v15.971a.688.688 0 0 1-.716.653h-8.016a.688.688 0 0 1-.716-.653V35.082a4.161 4.161 0 0 1 1.792-3.382z" transform="translate(-161.151)"/>
        <path id="Path_1000" d="M360 33.235v17.851a1.944 1.944 0 0 0 2.025 1.847h6.749a1.944 1.944 0 0 0 2.025-1.847V33.235a4.89 4.89 0 0 0-2.7-4.265v-6.815h.675a.647.647 0 0 0 .675-.616v-2.461a.647.647 0 0 0-.675-.616v-.616A1.944 1.944 0 0 0 366.749 16h-2.7a1.944 1.944 0 0 0-2.025 1.847v.616a.647.647 0 0 0-.675.616v2.461a.647.647 0 0 0 .675.616h.675v6.814A4.89 4.89 0 0 0 360 33.235zm9.449 17.851a.648.648 0 0 1-.675.616h-6.749a.648.648 0 0 1-.675-.616v-1.847h8.1zm0-17.851v14.773h-8.1V33.235zm-6.074-15.388a.648.648 0 0 1 .675-.616h2.7a.648.648 0 0 1 .675.616v.616h-4.05zm-.675 1.847h5.4v1.231h-5.4zm4.05 2.462v3.693h-2.7v-3.694zm-3.086 7.744a.614.614 0 0 0 .385-.556V27.08h2.7v2.262a.614.614 0 0 0 .385.556 3.857 3.857 0 0 1 2.08 2.102h-7.63a3.858 3.858 0 0 1 2.08-2.1z" transform="translate(-307.652)"/>
        <path id="Path_1001" d="M74.7 272a2.592 2.592 0 0 0-2.7 2.462v6.155a2.711 2.711 0 0 0 5.4 0v-6.155A2.592 2.592 0 0 0 74.7 272zm1.35 8.618a1.356 1.356 0 0 1-2.7 0v-6.155a1.356 1.356 0 0 1 2.7 0z" transform="translate(-43.95 -236.303)"/>
        <path id="Path_1002" d="M235.135 282.858a2.978 2.978 0 0 0 2.533-1.794 8.638 8.638 0 0 0 0-7.533 2.685 2.685 0 0 0-5.065 0 8.639 8.639 0 0 0 0 7.533 2.978 2.978 0 0 0 2.532 1.794zm0-9.849c.945 0 2 1.834 2 4.289s-1.057 4.289-2 4.289-2-1.834-2-4.289 1.055-4.289 2-4.289z" transform="translate(-190.212 -236.061)"/>
    </g>
</svg>
