<svg xmlns="http://www.w3.org/2000/svg" width="44" height="36.364" viewBox="0 0 44 36.364">
    <defs>
        <style>
            .cls-2{fill:#a36f58}
        </style>
    </defs>
    <g id="_003-sweets" transform="translate(-16 -79.996)">
        <path id="Path_1003" fill="#ed8989" d="M219.693 93.088a5.095 5.095 0 0 0-10.189 0 2.521 2.521 0 0 0-1.477 2.749 2.3 2.3 0 0 0 2.173 2.083c.244 0 2.944 1.653 4.4 1.653s4.156-1.653 4.4-1.653a2.3 2.3 0 0 0 2.172-2.083 2.521 2.521 0 0 0-1.479-2.749z" transform="translate(-174.399 -7.18)"/>
        <path id="Path_1004" d="M214.6 208.793L208 184h13.2z" class="cls-2" transform="translate(-174.4 -93.26)"/>
        <path id="Path_1005" fill="#ed6f6d" d="M216 296h24.933v13.223H216z" transform="translate(-181.667 -193.689)"/>
        <path id="Path_1006" fill="#eb423f" d="M216 336h24.933v4.959H216z" transform="translate(-181.667 -229.557)"/>
        <ellipse id="Ellipse_6" cx="2" cy="3.5" fill="#c7312e" rx="2" ry="3.5" transform="translate(51 93.996)"/>
        <path id="Path_1007" fill="#ffc9c9" d="M238 264h-22v3.306h22v13.223h2.933V264z" transform="translate(-181.667 -164.995)"/>
        <path id="Path_1008" d="M40 344v1.653l1.189 5.36a1.512 1.512 0 0 0 1.423 1.252h18.243a1.512 1.512 0 0 0 1.423-1.252l1.189-5.36V344z" class="cls-2" transform="translate(-21.8 -236.731)"/>
        <path id="Path_1009" fill="#ffb632" d="M48.933 246.954a5.926 5.926 0 0 1 1.467 3.79v.826c0 .913-.985 1.653-2.2 1.653s-2.2-.74-2.2-1.653c0 .913-.985 1.653-2.2 1.653s-2.2-.74-2.2-1.653c0 .913-.985 1.653-2.2 1.653s-2.2-.74-2.2-1.653c0 .913-.985 1.653-2.2 1.653s-2.2-.74-2.2-1.653c0 .913-.985 1.653-2.2 1.653s-2.2-.74-2.2-1.653c0 .913-.985 1.653-2.2 1.653s-2.2-.74-2.2-1.653v-.826a5.926 5.926 0 0 1 1.467-3.79v-.342c0-5.021 8.067-6.611 11.733-6.611s11.733 1.591 11.733 6.611z" transform="translate(-7.267 -143.475)"/>
        <path id="Path_1010" d="M59.267 98.178h-3.328a3.675 3.675 0 0 0 .155-2.961 3.05 3.05 0 0 0-2.016-1.907 6.455 6.455 0 0 0-.267-1.207 2.762 2.762 0 0 0-2.611-2.189.832.832 0 0 0 0 1.653c.367 0 .893.112 1.228 1.085a4.32 4.32 0 0 1 .171.7 3.083 3.083 0 0 0-1.917 1.937 3.676 3.676 0 0 0 .18 2.895h-5.276l1.917-7.2a.86.86 0 0 0-.4-.99 3.668 3.668 0 0 0 .327-2.61 3.253 3.253 0 0 0-1.472-2.049A6.093 6.093 0 0 0 40.2 80a6.093 6.093 0 0 0-5.755 5.332 3.253 3.253 0 0 0-1.472 2.049 3.668 3.668 0 0 0 .327 2.61.86.86 0 0 0-.4.99l1.392 5.231a21.386 21.386 0 0 0-4.357-.51 21.311 21.311 0 0 0-7.495 1.474c-4.109 1.7-4.972 4.183-4.972 5.964v.027A6.745 6.745 0 0 0 16 107.269v.826a2.477 2.477 0 0 0 1.767 2.282l.91 4.1a2.264 2.264 0 0 0 2.134 1.878h38.456a.784.784 0 0 0 .733-.826V99a.784.784 0 0 0-.733-.822zM53.4 94.873a1.665 1.665 0 1 1-1.467 1.653 1.568 1.568 0 0 1 1.467-1.653zm-8.026-1.653H40.2a.74.74 0 0 0-.681.519l-1.338 3.771q-.357-.173-.753-.338c-.486-.2-.987-.379-1.492-.534l-.47-1.766h1.068a.832.832 0 0 0 0-1.653H35.027l-.441-1.655h11.229zm-3.206 4.09a.718.718 0 0 0 .928-.523l.566-1.914h1.272l-.88 3.306h-4.531l1.177-3.306h1.419l-.419 1.391a.854.854 0 0 0 .468 1.046zm-6.831-10.617a.811.811 0 0 0 .5-.685A4.621 4.621 0 0 1 40.2 81.65a4.621 4.621 0 0 1 4.367 4.358.811.811 0 0 0 .5.685 1.681 1.681 0 0 1 .985 1.833 1.531 1.531 0 0 1-1.452 1.388h-8.8a1.532 1.532 0 0 1-1.448-1.388 1.681 1.681 0 0 1 .985-1.833zm4.43 27.388a.755.755 0 0 1-.712.626H20.812a.755.755 0 0 1-.712-.626l-.782-3.527a3.1 3.1 0 0 0 1.815-.8 3.353 3.353 0 0 0 4.4 0 3.352 3.352 0 0 0 4.4 0 3.352 3.352 0 0 0 4.4 0 3.352 3.352 0 0 0 4.4 0 3.1 3.1 0 0 0 1.815.8zm-.3-5.985a.739.739 0 1 0-1.467 0c0 .337-.571.826-1.467.826s-1.467-.489-1.467-.826a.739.739 0 1 0-1.467 0c0 .337-.571.826-1.467.826s-1.467-.489-1.467-.826a.739.739 0 1 0-1.467 0c0 .337-.571.826-1.467.826s-1.467-.489-1.467-.826a.739.739 0 1 0-1.467 0c0 .337-.571.826-1.467.826s-1.467-.489-1.467-.826a.739.739 0 1 0-1.467 0c0 .337-.571.826-1.467.826s-1.467-.489-1.467-.826v-.826a5.028 5.028 0 0 1 1.27-3.227.887.887 0 0 0 .2-.563v-.342c0-2.274 2.182-3.655 4.011-4.413a19.875 19.875 0 0 1 6.989-1.372 19.875 19.875 0 0 1 6.989 1.372c1.83.758 4.011 2.139 4.011 4.413v.342a.887.887 0 0 0 .2.563 5.027 5.027 0 0 1 1.27 3.227v.826c0 .337-.571.826-1.467.826s-1.468-.489-1.468-.822zm16.133 6.611H41.128c.023-.073.044-.148.061-.225l.5-2.254H55.6zm0-4.132H42.056l.044-.2a2.477 2.477 0 0 0 1.767-2.282v-.826H55.6zm0-4.959H43.64a7.186 7.186 0 0 0-1.24-2.453v-.027h13.2zm2.933 9.091h-1.466v-12.4a.784.784 0 0 0-.733-.826h-14.2a5.423 5.423 0 0 0-.9-1.653h17.3z"/>
        <path id="Path_1011" d="M114.7 264.04l-2.2.827a.854.854 0 0 0-.464 1.046.718.718 0 0 0 .928.523l2.2-.826a.854.854 0 0 0 .464-1.045.718.718 0 0 0-.928-.525z" transform="translate(-87.197 -164.993)"/>
        <path id="Path_1012" d="M160.733 280a.784.784 0 0 0-.733.826v1.653a.739.739 0 1 0 1.467 0v-1.653a.784.784 0 0 0-.734-.826z" transform="translate(-130.8 -179.342)"/>
        <path id="Path_1013" d="M187.163 264.866l-2.2-.827a.718.718 0 0 0-.928.523.854.854 0 0 0 .464 1.045l2.2.826a.718.718 0 0 0 .928-.523.854.854 0 0 0-.464-1.044z" transform="translate(-152.597 -164.993)"/>
        <path id="Path_1014" d="M272.733 113.653a1.57 1.57 0 0 1 1.467 1.653.739.739 0 1 0 1.467 0 3.14 3.14 0 0 0-2.934-3.306.832.832 0 0 0 0 1.653z" transform="translate(-232.533 -28.697)"/>
    </g>
</svg>
