<svg xmlns="http://www.w3.org/2000/svg" width="39.597" height="39.597" viewBox="0 0 39.597 39.597">
    <defs>
        <style>
            .cls-1{fill:#ad6643}.cls-3{fill:#f7b030}.cls-5{fill:#e09f2c}
        </style>
    </defs>
    <g id="_007-bread" transform="translate(-16 -16)">
        <path id="Path_1015" d="M161.159 176H144v25.078h17.159z" class="cls-1" transform="translate(-117.441 -146.801)"/>
        <path id="Path_1016" fill="#fbe9d8" d="M45.118 180.671c0-2.579-4.728-4.671-10.559-4.671S24 178.091 24 180.671c0 1.184 1 2.266 2.64 3.089v14.679h15.838v-14.68c1.643-.823 2.64-1.904 2.64-3.088z" transform="translate(-7.34 -146.801)"/>
        <path id="Path_1017" d="M38.6 421.94h-4.864a1.762 1.762 0 0 1-1.7-2.12A4.679 4.679 0 0 1 36.6 416h2z" class="cls-3" transform="translate(-14.68 -367.003)"/>
        <path id="Path_1018" d="M386.64 62.277c3.28 0 5.94-8.569 5.94-19.138S389.92 24 386.64 24H384v38.277z" class="cls-1" transform="translate(-337.643 -7.34)"/>
        <path id="Path_1019" fill="#c48669" d="M323.879 43.138c0 10.57-2.66 19.138-5.939 19.138-2.194 0-4.11-3.833-5.139-9.533q-.115-.641-.216-1.312a56.283 56.283 0 0 1-.585-7.814v-.478q0-.449.007-.893a55.958 55.958 0 0 1 .557-7.253q.108-.734.233-1.431c1.027-5.717 2.946-9.562 5.143-9.562 3.279 0 5.939 8.569 5.939 19.138z" transform="translate(-271.582 -7.34)"/>
        <path id="Path_1020" d="M80.579 385.239h-6.322c-1.424 0-2.492-1.591-2.213-3.3.566-3.455 3.048-5.942 5.932-5.942h2.6z" class="cls-5" transform="translate(-51.38 -330.303)"/>
        <path id="Path_1021" d="M288 421.94h4.863a1.762 1.762 0 0 0 1.7-2.12A4.679 4.679 0 0 0 290 416h-2z" class="cls-3" transform="translate(-249.562 -367.003)"/>
        <path id="Path_1022" d="M224 385.239h6.322c1.424 0 2.492-1.591 2.213-3.3-.566-3.455-3.048-5.942-5.932-5.942H224z" class="cls-5" transform="translate(-190.841 -330.303)"/>
        <path id="Path_1023" d="M130.976 348.54h-8.753a1.32 1.32 0 0 1-1.292-1.049l-.792-3.77a6.35 6.35 0 0 1 4.867-7.559 7.97 7.97 0 0 1 3.186 0 6.35 6.35 0 0 1 4.867 7.559l-.792 3.77a1.32 1.32 0 0 1-1.291 1.049z" class="cls-3" transform="translate(-95.421 -293.603)"/>
        <path id="Path_1024" d="M90.974 207.353a.66.66 0 1 0 .486-1.227 16.721 16.721 0 0 0-11.045 0 .66.66 0 1 0 .486 1.227 15.423 15.423 0 0 1 10.073 0z" transform="translate(-58.718 -173.581)"/>
        <path id="Path_1025" d="M49 16h-2.64c-1.928 0-3.6 2.1-4.83 6.07a38.155 38.155 0 0 0-1.333 6.469H26.559v.01a19.18 19.18 0 0 0-7.073 1.415C17.238 30.958 16 32.345 16 33.869c0 1.311.934 2.539 2.64 3.487V49.5a5.419 5.419 0 0 0-1.933 3.194 2.449 2.449 0 0 0 .511 2.034 2.375 2.375 0 0 0 1.838.872H43.3a2.366 2.366 0 0 0 1.473-.514 2.813 2.813 0 0 0 1.583.514H49c1.928 0 3.6-2.1 4.83-6.07A48.257 48.257 0 0 0 55.6 35.8a48.257 48.257 0 0 0-1.773-13.73C52.595 18.1 50.925 16 49 16zM19.056 54.277a1.06 1.06 0 0 1-.819-.391 1.133 1.133 0 0 1-.237-.942 4.081 4.081 0 0 1 2.413-2.984 9.229 9.229 0 0 0-.4 1.573 3.879 3.879 0 0 0 .558 2.744zm4.2 0h-.383a1.4 1.4 0 0 1-1.061-.536 2.484 2.484 0 0 1-.5-1.994 6.772 6.772 0 0 1 2.8-4.63 7.106 7.106 0 0 0-.042 3.137l.792 3.77a1.943 1.943 0 0 0 .073.253zm1.562-8.954a6.853 6.853 0 0 0-3.673 3.077 5.2 5.2 0 0 0-1.185.325V36.958a.66.66 0 0 0-.364-.59c-1.467-.735-2.276-1.623-2.276-2.5 0-.956.984-1.94 2.7-2.7a18.339 18.339 0 0 1 7.2-1.312 18.337 18.337 0 0 1 7.2 1.312c1.716.759 2.7 1.743 2.7 2.7 0 .876-.808 1.763-2.276 2.5a.66.66 0 0 0-.364.59v5.48a6.841 6.841 0 0 0-1.575-.526 8.58 8.58 0 0 0-3.45 0 6.838 6.838 0 0 0-4.37 2.976c-.095.142-.185.288-.263.434zm12.171 4.66l-.789 3.769a.663.663 0 0 1-.646.524H26.8a.663.663 0 0 1-.646-.524l-.792-3.771a5.749 5.749 0 0 1 .822-4.369 5.527 5.527 0 0 1 3.531-2.407 7.268 7.268 0 0 1 2.922 0 5.527 5.527 0 0 1 3.531 2.407 5.749 5.749 0 0 1 .825 4.37zm3.549 3.759a1.4 1.4 0 0 1-1.061.536h-2.058a1.945 1.945 0 0 0 .073-.253l.792-3.77a7.106 7.106 0 0 0-.041-3.137 6.772 6.772 0 0 1 2.8 4.63 2.487 2.487 0 0 1-.501 1.993zm-3.006-8.418c-.082-.147-.168-.292-.262-.434a6.976 6.976 0 0 0-1.47-1.624v-5.91c1.706-.948 2.64-2.176 2.64-3.487 0-1.525-1.238-2.912-3.486-3.906-.081-.036-.165-.07-.247-.1h5.341c-.189 1.9-.288 3.894-.288 5.939a50.545 50.545 0 0 0 1.435 12.565 6.843 6.843 0 0 0-3.659-3.045zm6.585 8.563a1.06 1.06 0 0 1-.819.392h-1.512a3.879 3.879 0 0 0 .558-2.744 9.236 9.236 0 0 0-.4-1.572 4.08 4.08 0 0 1 2.413 2.984 1.133 1.133 0 0 1-.235.942zm2.237.392a1.505 1.505 0 0 1-.81-.265 2.459 2.459 0 0 0 .1-1.321 5.408 5.408 0 0 0-2.944-3.836 33.087 33.087 0 0 1-.815-3.475 9.567 9.567 0 0 1 5.58.282.66.66 0 1 0 .417-1.251h-.016a10.879 10.879 0 0 0-6.2-.337 55.911 55.911 0 0 1-.591-7.824 9.036 9.036 0 0 1 5.729.179.66.66 0 1 0 .417-1.251h-.017a10.584 10.584 0 0 0-6.124-.3 55.188 55.188 0 0 1 .564-7.23 9.371 9.371 0 0 1 5.82.21.66.66 0 1 0 .417-1.251h-.016a10.994 10.994 0 0 0-5.982-.39 32.475 32.475 0 0 1 .9-3.736c1-3.221 2.334-5.144 3.57-5.144s2.57 1.922 3.57 5.141a46.926 46.926 0 0 1 1.714 13.32 46.924 46.924 0 0 1-1.71 13.337c-.999 3.218-2.334 5.14-3.57 5.14zm6.209-5.141c-1 3.219-2.333 5.141-3.57 5.141h-.153a13.3 13.3 0 0 0 2.344-4.75A48.257 48.257 0 0 0 52.957 35.8a48.257 48.257 0 0 0-1.769-13.73 13.3 13.3 0 0 0-2.344-4.75H49c1.236 0 2.57 1.922 3.57 5.141A46.926 46.926 0 0 1 54.277 35.8a46.924 46.924 0 0 1-1.71 13.336z"/>
    </g>
</svg>
