<svg xmlns="http://www.w3.org/2000/svg" width="38" height="38" viewBox="0 0 38 38">
    <defs>
        <style>
            .cls-2{fill:#f7b030}.cls-4{fill:#3397e8}.cls-7{fill:#dadcde}
        </style>
    </defs>
    <g id="_009-canned_food" transform="translate(-16 -16)">
        <path id="Path_1026" fill="#ffd33a" d="M24 80h21.533v32.3H24z" transform="translate(-7.367 -58.933)"/>
        <path id="Path_1027" d="M79.2 168v19H64v-19h.065a20.8 20.8 0 0 0 7.535 1.267A20.8 20.8 0 0 0 79.135 168z" class="cls-2" transform="translate(-44.2 -139.967)"/>
        <path id="Path_1028" fill="#ea9f26" d="M24 456h21.533v2.533H24z" transform="translate(-7.367 -405.167)"/>
        <ellipse id="Ellipse_7" cx="10.5" cy="4.5" class="cls-2" rx="10.5" ry="4.5" transform="translate(17 16.851)"/>
        <rect id="Rectangle_11" width="25" height="15" class="cls-4" rx="7.5" transform="rotate(90 12.574 40.426)"/>
        <path id="Path_1029" d="M328 200h10.133v20.267H328z" class="cls-4" transform="translate(-287.3 -169.433)"/>
        <path id="Path_1030" fill="#eb423f" d="M184 360h17.733v10.133H184z" transform="translate(-154.7 -316.767)"/>
        <ellipse id="Ellipse_8" cx="9" cy="3.5" fill="#c7312e" rx="9" ry="3.5" transform="translate(29 39.851)"/>
        <path id="Path_1031" d="M369.9 208a1.9 1.9 0 0 0-1.9 1.9v3.8a1.9 1.9 0 1 0 3.8 0v-3.8a1.9 1.9 0 0 0-1.9-1.9z" class="cls-7" transform="translate(-324.133 -176.8)"/>
        <path id="Path_1032" d="M224 337.9a1.9 1.9 0 0 0 1.9 1.9h3.8a1.9 1.9 0 1 0 0-3.8h-3.8a1.9 1.9 0 0 0-1.9 1.9z" class="cls-7" transform="translate(-191.533 -294.667)"/>
        <path id="Path_1033" d="M16.633 54h34.2A3.17 3.17 0 0 0 54 50.833V30.567a3.17 3.17 0 0 0-3.167-3.167H40.7a3.15 3.15 0 0 0-1.9.635v-6.968c0-1.458-1.259-2.779-3.546-3.72A21.288 21.288 0 0 0 27.4 16a21.288 21.288 0 0 0-7.854 1.346C17.259 18.288 16 19.609 16 21.067v32.3a.633.633 0 0 0 .633.633zm12.034-10.767V46.4h-8.234V28.916a22.546 22.546 0 0 0 6.967 1.017 22.518 22.518 0 0 0 6.967-1.018v10.239a13.559 13.559 0 0 0-2.719.811 7.913 7.913 0 0 0-1.362.736H23.6a.633.633 0 0 0 0 1.267h5.431a2.445 2.445 0 0 0-.364 1.265zm17.733 9.5H29.933V45.5a7.3 7.3 0 0 0 1.714 1 17.045 17.045 0 0 0 6.519 1.164 17.05 17.05 0 0 0 6.52-1.164 7.3 7.3 0 0 0 1.714-1zm-7.6-22.166a1.9 1.9 0 0 1 1.9-1.9h10.133a1.9 1.9 0 0 1 1.9 1.9v20.266a1.9 1.9 0 0 1-1.9 1.9h-3.166v-1.266h3.167a.633.633 0 0 0 .633-.633v-8.867a.633.633 0 0 0-1.267 0V50.2h-2.533v-6.967c0-1.284-1.059-2.445-2.981-3.269a14.223 14.223 0 0 0-3.352-.923V36.9a.633.633 0 1 0-1.267 0v1.985c-.415-.038-.838-.062-1.267-.075zm-.633 9.5c4.852 0 8.233 1.669 8.233 3.167S43.019 46.4 38.167 46.4s-8.233-1.669-8.233-3.167 3.381-3.166 8.233-3.166zM27.4 17.267c5.972 0 10.133 2 10.133 3.8s-4.162 3.8-10.133 3.8-10.133-2-10.133-3.8 4.161-3.8 10.133-3.8zm-10.133 6.186a8.352 8.352 0 0 0 2.279 1.334 21.288 21.288 0 0 0 7.854 1.346 21.3 21.3 0 0 0 7.854-1.346 8.352 8.352 0 0 0 2.279-1.334V38.81c-.649.019-1.284.067-1.9.143v-10.92a.632.632 0 0 0-.873-.612 20.036 20.036 0 0 1-7.36 1.246 20.157 20.157 0 0 1-7.3-1.221.633.633 0 0 0-.87.587h-.065v19a.633.633 0 0 0 .633.633h8.867V50.2h-11.4zm0 28.013h11.4v1.267h-11.4z"/>
        <path id="Path_1034" d="M320.633 197.067a.633.633 0 0 0 .633-.633v-3.167h8.867v8.233a.633.633 0 1 0 1.267 0v-8.867a.633.633 0 0 0-.633-.633h-10.134a.633.633 0 0 0-.633.633v3.8a.633.633 0 0 0 .633.634z" transform="translate(-279.933 -162.067)"/>
        <path id="Path_1035" d="M71.6 53.067c2.823 0 7.6-.534 7.6-2.533S74.423 48 71.6 48c-.436 0-.873.011-1.3.032a.633.633 0 0 0 .063 1.265c.4-.02.82-.031 1.235-.031a19.693 19.693 0 0 1 4.519.472 3.491 3.491 0 0 1 1.8.795 3.491 3.491 0 0 1-1.8.795 21.877 21.877 0 0 1-9.039 0 3.491 3.491 0 0 1-1.8-.795c.11-.156.743-.633 2.633-.969a.633.633 0 1 0-.222-1.247c-1.683.3-3.689.927-3.689 2.217 0 1.999 4.777 2.533 7.6 2.533z" transform="translate(-44.2 -29.467)"/>
        <path id="Path_1036" d="M225.9 339.8h3.8a1.9 1.9 0 1 0 0-3.8h-3.8a1.9 1.9 0 1 0 0 3.8zm1.791-2.533h2.009a.633.633 0 1 1 0 1.267h-2.009a1.9 1.9 0 0 0 0-1.267zm-1.791 0a.633.633 0 1 1-.633.633.633.633 0 0 1 .633-.633z" transform="translate(-191.533 -294.667)"/>
        <path id="Path_1037" d="M368 209.9v3.8a1.9 1.9 0 1 0 3.8 0v-3.8a1.9 1.9 0 0 0-3.8 0zm1.9-.633a.633.633 0 1 1-.633.633.633.633 0 0 1 .633-.633zm-.633 2.424a1.9 1.9 0 0 0 1.267 0v2.009a.633.633 0 0 1-1.267 0z" transform="translate(-324.133 -176.8)"/>
        <path id="Path_1038" d="M208.633 448a.633.633 0 1 0 0 1.267H221.3a.633.633 0 0 0 0-1.267z" transform="translate(-176.8 -397.8)"/>
        <path id="Path_1039" d="M104.633 233.267h7.6a.633.633 0 0 0 0-1.267h-7.6a.633.633 0 0 0 0 1.267z" transform="translate(-81.033 -198.9)"/>
        <path id="Path_1040" d="M104.633 281.267h7.6a.633.633 0 0 0 0-1.267h-7.6a.633.633 0 0 0 0 1.267z" transform="translate(-81.033 -243.1)"/>
    </g>
</svg>
