<svg xmlns="http://www.w3.org/2000/svg" width="38.17" height="39.024" viewBox="0 0 38.17 39.024">
    <defs>
        <style>
            .cls-1{fill:#eb423f}.cls-2{fill:#c7312e}.cls-3{fill:#e9eef2}
        </style>
    </defs>
    <g id="_017-cleaning_products" transform="translate(-48 -16)">
        <path id="Path_1041" d="M89 24h12.983a2.05 2.05 0 0 1 0 4.1H89z" class="cls-1" transform="translate(-37.498 -7.317)"/>
        <path id="Path_1042" d="M57 32h2.733v2.733H57z" class="cls-2" transform="translate(-8.231 -14.633)"/>
        <path id="Path_1043" d="M177 72h4.1v4.1H177z" class="cls-3" transform="translate(-117.057 -51.217)"/>
        <path id="Path_1044" d="M78.467 74.05v.683a4.1 4.1 0 0 1-4.1 4.1 1.367 1.367 0 1 1 0-2.733 1.367 1.367 0 0 0 1.367-1.367V72h2.733z" class="cls-2" transform="translate(-22.865 -51.217)"/>
        <path id="Path_1045" d="M161 120h6.833v5.467H161z" class="cls-2" transform="translate(-102.461 -95.611)"/>
        <path id="Path_1046" d="M71.833 170.733v.683a2.733 2.733 0 0 1-2.733 2.734h-1.367A2.733 2.733 0 0 0 65 176.883V192.6a2.733 2.733 0 0 0 2.733 2.733h10.934A2.733 2.733 0 0 0 81.4 192.6v-21.867A2.733 2.733 0 0 0 78.667 168h-4.1a2.733 2.733 0 0 0-2.734 2.733z" class="cls-1" transform="translate(-15.548 -140.992)"/>
        <path id="Path_1047" d="M105.2 201.367v3.417a1.367 1.367 0 0 1-1.367 1.367h-5.466A1.367 1.367 0 0 0 97 207.517V220.5a1.367 1.367 0 0 0 1.367 1.367h8.2a1.367 1.367 0 0 0 1.367-1.367v-19.133a1.367 1.367 0 1 0-2.733 0z" class="cls-3" transform="translate(-44.815 -170.259)"/>
        <path id="Path_1048" fill="#d46109" d="M349.1 26.733H345v-2.124l1.618-.539a1.367 1.367 0 0 1 .864 0l1.618.539z" transform="translate(-269.504 -7.316)"/>
        <path id="Path_1049" fill="#ed8424" d="M345 56h4.1v3.417H345z" transform="translate(-269.504 -36.583)"/>
        <path id="Path_1050" fill="#ff8e26" d="M306.567 122.167a2.733 2.733 0 0 0 2.733-2.733v-15.717c0-.683-.683-1.367-.683-2.05s.683-1.345.683-2.05c0-.683-.683-1.367-.683-2.05s.683-1.345.683-2.05v-1.369a6.148 6.148 0 0 0-12.3 0v1.368c0 .7.683 1.367.683 2.05S297 98.933 297 99.617c0 .7.683 1.367.683 2.05s-.683 1.367-.683 2.05v15.717a2.733 2.733 0 0 0 2.733 2.733z" transform="translate(-225.095 -67.826)"/>
        <path id="Path_1051" fill="#ffd33a" d="M332.417 120a3.417 3.417 0 0 1 3.417 3.417v.683a1.367 1.367 0 0 1-1.367 1.367h-4.1A1.367 1.367 0 0 1 329 124.1v-.683a3.417 3.417 0 0 1 3.417-3.417z" transform="translate(-254.362 -95.611)"/>
        <path id="Path_1052" fill="#dadcde" d="M160 424h24.6v5.467H160z" transform="translate(-99.797 -375.126)"/>
        <path id="Path_1053" fill="#7e8589" d="M153.367 376H176.6a1.367 1.367 0 0 1 1.367 1.367v2.733H152v-2.733a1.367 1.367 0 0 1 1.367-1.367z" transform="translate(-92.48 -331.226)"/>
        <path id="Path_1054" d="M326.15 118.833a2.052 2.052 0 0 0 2.05-2.05v-.683a4.1 4.1 0 1 0-8.2 0v.683a2.052 2.052 0 0 0 2.05 2.05zm-4.783-2.05v-.683a2.733 2.733 0 1 1 5.467 0v.683a.684.684 0 0 1-.683.683h-4.1a.684.684 0 0 1-.684-.683z" transform="translate(-246.13 -88.274)"/>
        <path id="Path_1055" d="M65.617 21.2a2.784 2.784 0 0 0 2.936-2.6 2.784 2.784 0 0 0-2.936-2.6H51.67a.7.7 0 0 0-.734.65h-2.2a.7.7 0 0 0-.736.65v2.6a.7.7 0 0 0 .734.65h2.2a.7.7 0 0 0 .734.65h.732v1.951a.7.7 0 0 1-.734.65 2.088 2.088 0 0 0-2.2 1.951 2.088 2.088 0 0 0 2.2 1.951 4.878 4.878 0 0 0 5.138-4.553V21.2h2.2v2.6h-.734a.7.7 0 0 0-.734.65v3.9a3.142 3.142 0 0 0-1.471 2.6v.65a2.09 2.09 0 0 1-2.2 1.951H52.4a3.484 3.484 0 0 0-3.67 3.252v14.969a3.484 3.484 0 0 0 3.67 3.252h32.3a.7.7 0 0 0 .734-.65v-4.553a.7.7 0 0 0 .734-.65v-2.6A1.985 1.985 0 0 0 84.7 44.73v-7.917a2.621 2.621 0 0 0-.445-1.266 1.83 1.83 0 0 1-.289-.685 1.775 1.775 0 0 1 .284-.668 2.617 2.617 0 0 0 .45-1.283 2.621 2.621 0 0 0-.445-1.266 1.83 1.83 0 0 1-.289-.685 1.775 1.775 0 0 1 .284-.668 2.617 2.617 0 0 0 .45-1.283V27.7a6.536 6.536 0 0 0-4.4-5.957V17.23a.662.662 0 0 0-.5-.617l-1.743-.513a2.489 2.489 0 0 0-1.393 0l-1.738.513a.662.662 0 0 0-.5.617v4.517a6.536 6.536 0 0 0-4.4 5.957v1.3a2.617 2.617 0 0 0 .45 1.283 1.778 1.778 0 0 1 .284.668 1.83 1.83 0 0 1-.289.685 2.622 2.622 0 0 0-.445 1.266 2.617 2.617 0 0 0 .45 1.283 1.778 1.778 0 0 1 .284.668 1.83 1.83 0 0 1-.289.685 2.622 2.622 0 0 0-.445 1.266v7.8h-2.2V30.959a3.141 3.141 0 0 0-1.47-2.6v-3.9a.7.7 0 0 0-.734-.65h-.734V21.2zm-14.681-1.948h-1.468v-1.3h1.468zm4.4 3.9a3.484 3.484 0 0 1-3.67 3.252.655.655 0 1 1 0-1.3 2.09 2.09 0 0 0 2.2-1.951V21.2h1.474zm3.67 1.951h5.872v2.667a4.129 4.129 0 0 0-.734-.065h-4.4a4.129 4.129 0 0 0-.734.065zm1.468-1.3V21.2h2.936v2.6zm-2.932 27.319h-3.67a.7.7 0 0 1-.734-.65V38.114a.7.7 0 0 1 .734-.65h5.872a2.091 2.091 0 0 0 2.2-1.951V32.26a.739.739 0 0 1 1.468 0v12.358h-4.4a2.09 2.09 0 0 0-2.2 1.951v2.6a.7.7 0 0 0 .734.65zm26.425 2.6H82.5v-1.95a.739.739 0 0 0-1.468 0v1.951h-1.469v-1.951a.739.739 0 0 0-1.468 0v1.951h-1.468v-1.951a.739.739 0 0 0-1.468 0v1.951h-1.468v-1.951a.739.739 0 0 0-1.468 0v1.951h-1.468v-1.951a.739.739 0 0 0-1.468 0v1.951h-1.468v-1.951a.739.739 0 0 0-1.468 0v1.951h-1.468v-1.951a.739.739 0 0 0-1.468 0v1.951h-1.468v-1.951a.739.739 0 0 0-1.468 0v1.951H59.01v-3.9h24.957zM75.893 17.7l1.236-.365a.827.827 0 0 1 .464 0l1.236.365v.9h-2.936zm0 2.2h2.936v1.432a8.3 8.3 0 0 0-2.936 0zm-4.4 16.91a1.83 1.83 0 0 1 .289-.685 2.622 2.622 0 0 0 .445-1.266 2.569 2.569 0 0 0-.441-1.253 1.8 1.8 0 0 1-.293-.7 1.83 1.83 0 0 1 .289-.685 2.622 2.622 0 0 0 .445-1.267 2.569 2.569 0 0 0-.441-1.253 1.8 1.8 0 0 1-.293-.7v-1.3c-.014-2.874 2.6-5.213 5.847-5.225s5.883 2.308 5.9 5.181a.566.566 0 0 0 0 .087v1.257a1.8 1.8 0 0 1-.293.7 2.569 2.569 0 0 0-.441 1.253 2.622 2.622 0 0 0 .445 1.267 1.83 1.83 0 0 1 .289.685 1.8 1.8 0 0 1-.293.7 2.569 2.569 0 0 0-.441 1.253 2.622 2.622 0 0 0 .445 1.266 1.83 1.83 0 0 1 .289.685v7.8h-2.2v-5.846a.739.739 0 0 0-1.468 0v5.854H78.1v-5.854a.739.739 0 0 0-1.468 0v5.854h-1.473v-5.854a.739.739 0 0 0-1.468 0v5.854h-2.2zm12.479 9.106a.7.7 0 0 1 .734.65v1.954h-26.43v-1.951a.7.7 0 0 1 .734-.65zM66.351 30.959v13.659h-1.468V32.26a2.218 2.218 0 0 0-4.4 0v3.252a.7.7 0 0 1-.734.65h-5.877a2.091 2.091 0 0 0-2.2 1.951v12.358a2.091 2.091 0 0 0 2.2 1.951h3.67v1.3H52.4a2.09 2.09 0 0 1-2.2-1.951V36.813a2.09 2.09 0 0 1 2.2-1.951h1.468a3.97 3.97 0 0 0 2.2-.65h2.2a.655.655 0 1 0 0-1.3h-1.033a2.921 2.921 0 0 0 .307-1.3h.734a.655.655 0 1 0 0-1.3h-.608a2.206 2.206 0 0 1 2.076-1.3h4.4a2.09 2.09 0 0 1 2.207 1.947zM52.4 19.9v-2.6h13.217a1.31 1.31 0 1 1 0 2.6z"/>
    </g>
</svg>
