<svg xmlns="http://www.w3.org/2000/svg" width="39" height="45" viewBox="0 0 39 45">
    <defs>
        <style>
            .cls-3{fill:#3397e8}.cls-4{fill:#eb423f}.cls-5{fill:#d13330}
        </style>
    </defs>
    <g id="_018-fashion" transform="translate(-48 -15.996)">
        <path id="Path_1056" fill="#c7312e" d="M136 104h10.5v25.5H136z" transform="translate(-79.75 -79.754)"/>
        <path id="Path_1057" fill="#266fab" d="M280 104h15v3h-15z" transform="translate(-210.25 -79.754)"/>
        <g id="Group_31" transform="translate(68.25 27.246)">
            <path id="Path_1058" d="M273 169h-9l1.5-33h7.5z" class="cls-3" transform="translate(-264 -136)"/>
            <path id="Path_1059" d="M360 169h9l-1.5-33H360z" class="cls-3" transform="translate(-351 -136)"/>
            <path id="Path_1060" d="M369 169h-9v-33h7.5l.171 3.75z" class="cls-3" transform="translate(-351 -136)"/>
        </g>
        <path id="Path_1061" d="M65.75 107.75V131H60.5v1.5H56v-15l1.682-11.227a3 3 0 0 1 2.91-2.273h3.658a4.48 4.48 0 0 0 1.241 3.1z" class="cls-4" transform="translate(-7.25 -79.754)"/>
        <path id="Path_1062" d="M233.75 117.5v15h-4.5V131H224v-23.25l.259-.648A4.479 4.479 0 0 0 225.5 104h3.658a3 3 0 0 1 2.91 2.273z" class="cls-4" transform="translate(-159.5 -79.754)"/>
        <path id="Path_1063" d="M116.241 107.1A4.479 4.479 0 0 1 115 104h-3l.48 3.12a2.135 2.135 0 0 0 4.02.63v-.4c-.09-.077-.176-.161-.259-.25z" class="cls-5" transform="translate(-58 -79.754)"/>
        <path id="Path_1064" d="M228.5 104l-.48 3.12a2.135 2.135 0 0 1-4.02.63v-.4c.09-.081.176-.164.259-.251A4.479 4.479 0 0 0 225.5 104z" class="cls-5" transform="translate(-159.5 -79.754)"/>
        <path id="Path_1065" fill="#2d85cc" d="M411.171 139.75H411c-3 0-3-3.75-3-3.75h3z" transform="translate(-326.25 -108.754)"/>
        <path id="Path_1066" d="M67.708 60.764a.75.75 0 0 0 .542.236h18a.75.75 0 0 0 .75-.788l-1.5-32.984v-2.982a.75.75 0 0 0-.75-.75h-2.773l-3.036-2.024A3 3 0 1 0 74.25 19a.75.75 0 1 0 1.5 0 1.5 1.5 0 1 1 1.5 1.5.749.749 0 0 0-.416.126L72.523 23.5h-6.3l-3.036-2.024A3 3 0 1 0 58.5 19a.75.75 0 1 0 1.5 0 1.5 1.5 0 1 1 1.5 1.5.749.749 0 0 0-.416.126L56.773 23.5h-3.431a3.744 3.744 0 0 0-3.642 2.837.714.714 0 0 0-.014.071l-1.677 11.227a.75.75 0 0 0-.009.111v15a.75.75 0 0 0 .75.75h4.5a.75.75 0 0 0 .75-.75V52h4.5a.75.75 0 0 0 .75-.75v-.75h4.5v.75a.75.75 0 0 0 .75.75h3.374l-.374 8.212a.75.75 0 0 0 .208.552zM76.5 59.5h-7.465l.279-6.141a.745.745 0 0 0 .436.141h4.5a.75.75 0 0 0 .75-.75v-15a.749.749 0 0 0-.008-.111L73.548 28H76.5zm8.965 0H78V28h3.063a6.2 6.2 0 0 0 .366 1.4 3.452 3.452 0 0 0 2.771 2.309zm-1.333-29.335a2.009 2.009 0 0 1-1.3-1.29 4.453 4.453 0 0 1-.25-.875h1.451zm-6.882-8.017l2.023 1.352h-4.046zM84 25v1.5H73.323l-.013-.089a.721.721 0 0 0-.014-.071 3.747 3.747 0 0 0-.638-1.34zm-17.3 0h1.429l-.347 2.256a1.387 1.387 0 0 1-2.482.616A5.238 5.238 0 0 0 66.7 25zm-5.2-2.849l2.023 1.349h-4.046zM56.3 25a5.238 5.238 0 0 0 1.4 2.872 1.387 1.387 0 0 1-2.482-.616L54.874 25zm1.45 25.5H54V36.246a.75.75 0 1 0-1.5 0V52h-3V37.8l1.668-11.134A2.247 2.247 0 0 1 53.342 25h.014l.382 2.484a2.84 2.84 0 0 0 2.4 2.412 2.891 2.891 0 0 0 1.606-.2zm6-1.5h-4.5V28.988a5.236 5.236 0 0 0 4.5 0zM61.5 28a3.756 3.756 0 0 1-3.675-3h7.349a3.756 3.756 0 0 1-3.674 3zm3.75 22.5V29.7a2.892 2.892 0 0 0 1.606.2 2.84 2.84 0 0 0 2.4-2.411L69.643 25h.014a2.247 2.247 0 0 1 2.174 1.672L73.5 37.8V52h-3V36.246a.75.75 0 1 0-1.5 0V50.5z"/>
    </g>
</svg>
