<svg xmlns="http://www.w3.org/2000/svg" width="39.726" height="39.726" viewBox="0 0 39.726 39.726">
    <defs>
        <style>
            .cls-3{fill:#a36f58}.cls-5{fill:#8f9e46}
        </style>
    </defs>
    <g id="_019-coffee" transform="translate(-16 -16)">
        <path id="Path_1067" fill="#c48669" d="M47.836 102.457H24l.662-25.16L25.986 72h19.863l1.324 5.3z" transform="translate(-7.338 -51.365)"/>
        <path id="Path_1068" fill="#d1ad8f" d="M48 24h19.863v3.973H48z" transform="translate(-29.352 -7.338)"/>
        <path id="Path_1069" d="M147.973 31.945l-1.986-1.324L144 31.945V24h3.973z" class="cls-3" transform="translate(-117.406 -7.338)"/>
        <path id="Path_1070" fill="#b1bd70" d="M184 312h25.16v14.566H184z" transform="translate(-154.096 -271.502)"/>
        <path id="Path_1071" d="M184 376h25.16v4.635H184z" class="cls-5" transform="translate(-154.096 -330.206)"/>
        <ellipse id="Ellipse_9" cx="7" cy="4.5" fill="#ffd33a" rx="7" ry="4.5" transform="translate(35 43)"/>
        <path id="Path_1072" d="M24 440h13.242v3.973H24z" class="cls-3" transform="translate(-7.338 -388.909)"/>
        <path id="Path_1073" d="M0 0h1.986a2.648 2.648 0 0 1 2.649 2.648v.662H2.648A2.648 2.648 0 0 1 0 .662z" class="cls-5" transform="rotate(180 21.242 24.884)"/>
        <path id="Path_1074" d="M338.648 384h1.986v.662a2.648 2.648 0 0 1-2.648 2.648H336v-.662a2.648 2.648 0 0 1 2.648-2.648z" class="cls-5" transform="translate(-293.516 -337.543)"/>
        <ellipse id="Ellipse_10" cx="3.265" cy="4.571" fill="#663c28" rx="3.265" ry="4.571" transform="rotate(-45 49.64 -7.335)"/>
        <ellipse id="Ellipse_11" cx="4.571" cy="3.265" fill="#734b39" rx="4.571" ry="3.265" transform="rotate(-45 54.381 -14.733)"/>
        <path id="Path_1075" d="M16.662 55.726h38.4a.662.662 0 0 0 .662-.662V40.5a.662.662 0 0 0-.662-.662h-14.2L40.5 25.914a.658.658 0 0 0-.02-.143l-1.3-5.218v-3.891a.662.662 0 0 0-.669-.662H18.648a.662.662 0 0 0-.662.662v3.891l-1.3 5.218a.658.658 0 0 0-.02.143L16 51.074v3.99a.662.662 0 0 0 .662.662zM54.4 54.4H30.566v-3.31h5.691a6.944 6.944 0 0 0 .721.525 11.1 11.1 0 0 0 11.011 0 6.944 6.944 0 0 0 .721-.525h5.69zm-19.3-4.633h-4.534v-3.31h4.216a3.74 3.74 0 0 0-.243 1.324 3.845 3.845 0 0 0 .561 1.986zm9.368.662a3.314 3.314 0 0 0 3.311-3.311v-.662a.662.662 0 0 0-.662-.662h-1.985a3.293 3.293 0 0 0-1.986.664v-.664a.662.662 0 1 0-1.324 0v.664a3.293 3.293 0 0 0-1.986-.664h-1.987a.662.662 0 0 0-.662.662v.662a3.314 3.314 0 0 0 3.313 3.311h1.324v1.3A8.738 8.738 0 0 1 37.69 50.5a3.375 3.375 0 0 1-1.827-2.719 3.375 3.375 0 0 1 1.827-2.719 9.793 9.793 0 0 1 9.589 0 3.375 3.375 0 0 1 1.827 2.719 3.375 3.375 0 0 1-1.828 2.719 8.738 8.738 0 0 1-4.132 1.234v-1.3zm-1.324-1.324a1.989 1.989 0 0 1 1.986-1.986h1.324a1.989 1.989 0 0 1-1.986 1.986zm-1.324 0H40.5a1.989 1.989 0 0 1-1.986-1.986h1.324a1.989 1.989 0 0 1 1.984 1.986zm12.58.662h-4.534a3.845 3.845 0 0 0 .563-1.986 3.74 3.74 0 0 0-.243-1.324H54.4zm0-8.607v3.973h-5.014a6.263 6.263 0 0 0-1.4-1.187 11.1 11.1 0 0 0-11.011 0 6.263 6.263 0 0 0-1.4 1.187h-5.009V41.16zM31.228 17.324h6.621v2.648h-6.621zm-3.973 0H29.9v6.046l-.957-.638a.662.662 0 0 0-.735 0l-.957.638zm-7.945 0h6.621v2.648h-6.62zm-1.326 8.7l1.181-4.724h6.766v3.311a.662.662 0 0 0 1.029.551l1.619-1.079 1.621 1.075a.662.662 0 0 0 1.029-.551V21.3h6.766l1.181 4.725.363 13.814H29.9a.662.662 0 0 0-.662.662v9.932h-11.9zm-.66 25.732h11.918V54.4H17.324z"/>
        <path id="Path_1076" d="M82.7 177.194a6.6 6.6 0 0 0 5.115-5.115 3.317 3.317 0 0 0-4.027-4.027 6.255 6.255 0 0 0-3.321 1.794 7.011 7.011 0 0 0-.8.95c-.088-.1-.177-.194-.271-.288a6.254 6.254 0 0 0-3.321-1.794 3.317 3.317 0 0 0-4.027 4.027 6.6 6.6 0 0 0 5.115 5.115 4.6 4.6 0 0 0 .757.065 3.314 3.314 0 0 0 2.4-.935l.062-.066a3.561 3.561 0 0 0 1.558.339 4.6 4.6 0 0 0 .76-.065zm-7.918-2.069a4.651 4.651 0 0 1-1.464-3.188 4.477 4.477 0 0 1 .973.073 1.933 1.933 0 0 1 1.69 1.446 4.2 4.2 0 0 0 1.85 2.764 3.027 3.027 0 0 0 .713.294 4.259 4.259 0 0 1-3.762-1.389zm4.053.094a1.7 1.7 0 0 1-.364-.159 2.983 2.983 0 0 1-1.207-1.935 3.5 3.5 0 0 0-3.489-2.514c.027-.031.055-.062.084-.091a2.229 2.229 0 0 1 2-.5 4.925 4.925 0 0 1 2.6 1.425 5.707 5.707 0 0 1 .526.606 5.384 5.384 0 0 0-.317 1.116 3.949 3.949 0 0 0 .168 2.052zm1.735.251c-.031-.027-.062-.055-.091-.084-1-1-.575-3.106.923-4.6a4.682 4.682 0 0 1 3.14-1.465 2.345 2.345 0 0 1 .876.16l-.2.057a1.749 1.749 0 0 1-.2 1.241 2.984 2.984 0 0 1-1.935 1.207 3.5 3.5 0 0 0-2.512 3.485zm2.845-2.207a4.2 4.2 0 0 0 2.764-1.85 3.027 3.027 0 0 0 .294-.713 4.259 4.259 0 0 1-1.389 3.763 4.648 4.648 0 0 1-3.192 1.464c-.028-.8.116-2.3 1.523-2.663z" transform="translate(-51.354 -139.408)"/>
    </g>
</svg>
