<svg xmlns="http://www.w3.org/2000/svg" width="38" height="38" viewBox="0 0 38 38">
    <defs>
        <style>
            .cls-3{fill:#266fab}.cls-5{fill:#ffd33a}.cls-8{fill:#35a872}.cls-9{fill:#eb423f}.cls-10{fill:#d4a811}
        </style>
    </defs>
    <g id="_026-frozen_goods" transform="translate(-16 -16)">
        <path id="Path_1123" fill="#3397e8" d="M45.533 87.667H25.267S24 77.533 24 71.833 25.267 56 25.267 56h20.266S46.8 66.133 46.8 71.833s-1.267 15.834-1.267 15.834z" transform="translate(-7.367 -36.833)"/>
        <path id="Path_1124" fill="#e9eef2" d="M73.733 204.433c0 3.029-.378 7.425-.718 10.767h-16.3c-.34-3.342-.718-7.738-.718-10.767 0-1.292.069-2.833.174-4.433h17.388c.105 1.6.174 3.141.174 4.433z" transform="translate(-36.833 -169.433)"/>
        <path id="Path_1125" d="M45.533 26.533H25.267L24 24h22.8z" class="cls-3" transform="translate(-7.367 -7.367)"/>
        <path id="Path_1126" d="M25.267 456h20.266l1.267 2.533H24z" class="cls-3" transform="translate(-7.367 -405.167)"/>
        <path id="Path_1127" fill="#f78a25" d="M200 232h2.533v2.533H200z" transform="translate(-169.433 -198.9)"/>
        <path id="Path_1128" d="M0 0h2.687v2.687H0z" class="cls-5" transform="rotate(-45 63.645 -16.859)"/>
        <ellipse id="Ellipse_20" cx="1" cy="1.5" fill="#b1bd70" rx="1" ry="1.5" transform="translate(27 41.918)"/>
        <path id="Path_1129" fill="#88c791" d="M97.9 277.7l-1.267-.633L96 273.9l1.9-1.9 1.9 1.9z" transform="translate(-73.667 -235.733)"/>
        <path id="Path_1130" d="M78.2 234.6a1.9 1.9 0 1 0-3.666-.7v.11a1.9 1.9 0 1 0 1.266 1.79v-.11q.067.024.137.043A1.9 1.9 0 1 0 78.2 234.6z" class="cls-8" transform="translate(-51.567 -198.897)"/>
        <path id="Path_1131" d="M0 0h20.267v24.067H0z" class="cls-9" transform="rotate(180 26.683 26.683)"/>
        <path id="Path_1132" d="M0 0h15.2v19H0z" class="cls-8" transform="rotate(180 25.416 25.416)"/>
        <path id="Path_1133" d="M279.2 244.841a13.424 13.424 0 0 1-15.2 0v-.175L271.6 232l7.6 12.667" class="cls-10" transform="translate(-228.367 -198.9)"/>
        <path id="Path_1134" d="M292.582 242.569a10.633 10.633 0 0 1-12.682 0L286.241 232z" class="cls-10" transform="translate(-243.008 -198.9)"/>
        <path id="Path_1135" d="M292.582 242.569a10.633 10.633 0 0 1-12.682 0L286.241 232z" class="cls-5" transform="translate(-243.008 -198.9)"/>
        <circle id="Ellipse_21" cx="1" cy="1" r="1" class="cls-9" transform="translate(41 40.918)"/>
        <path id="Path_1136" d="M147.8 337.9a1.9 1.9 0 1 0-1.9 1.9 1.9 1.9 0 0 0 1.9-1.9zm-1.9.633a.633.633 0 1 1 .633-.633.633.633 0 0 1-.633.633z" transform="translate(-117.867 -294.667)"/>
        <path id="Path_1137" d="M135.414 82.085a.633.633 0 0 0-.9 0l-1.081 1.081h-1v-1l1.081-1.081a.633.633 0 0 0-.9-.9L131.8 81l-.819-.819a.633.633 0 0 0-.9.9l1.081 1.081v1h-1l-1.081-1.081a.633.633 0 1 0-.9.9l.819.819-.819.819a.633.633 0 1 0 .9.9l1.081-1.081h1v1l-1.081 1.081a.633.633 0 0 0 .9.9l.819-.819.819.819a.633.633 0 1 0 .9-.9l-1.081-1.081v-1h1l1.081 1.081a.633.633 0 0 0 .9-.9l-.819-.819.819-.819a.633.633 0 0 0-.005-.896z" transform="translate(-103.133 -58.933)"/>
        <path id="Path_1138" d="M54 53.367V29.3a.633.633 0 0 0-.633-.633h-13.6c-.33-4.237-.832-8.453-.946-9.388L40 16.917a.633.633 0 0 0-.567-.917h-22.8a.633.633 0 0 0-.566.917l1.181 2.362C17.075 20.7 16 29.757 16 35s1.075 14.3 1.248 15.721l-1.181 2.362a.633.633 0 0 0 .566.917h36.734a.633.633 0 0 0 .633-.633zm-15.591-36.1l-.633 1.267H18.291l-.633-1.267zm-5.942 35.466H17.658l.633-1.267h14.176zm0-11.662l-1-1 1-1zm0-6.071H31.2v-1.267h1.267zm0-2.533h-1.9a.633.633 0 0 0-.633.633v2.533a.633.633 0 0 0 .633.633h1.9v1.267a.631.631 0 0 0-.448.185l-1.9 1.9a.633.633 0 0 0 0 .9l1.9 1.9a.631.631 0 0 0 .448.185v2.533H20.458c-.231-2.326-.479-5.182-.593-7.668a2.54 2.54 0 0 0 2.07 1.936l.411 2.056a.633.633 0 0 0 .338.442l1.267.633a.633.633 0 0 0 .85-.283l1.1-2.2c.078.007.156.012.236.012a2.533 2.533 0 0 0 1.246-4.739 2.533 2.533 0 0 0-4.966-.96h-.08a2.537 2.537 0 0 0-2.506 2.163c-.018-.538-.027-1.052-.027-1.53 0-1.036.046-2.312.135-3.8h12.528zM23.6 35a1.267 1.267 0 1 1 2.444.467.633.633 0 0 0 .423.845 1.267 1.267 0 1 1-1.511.755.633.633 0 0 0-.422-.844c-.032-.009-.063-.018-.092-.029a.633.633 0 0 0-.845.633v.073a1.267 1.267 0 1 1-.842-1.194.633.633 0 0 0 .845-.633V35zm1.1 4.619l-.749 1.5-.423-.212-.328-1.627a2.535 2.535 0 0 0 .761-.441 2.551 2.551 0 0 0 .739.78zM32.467 29.3v.633H19.341a.633.633 0 0 0-.632.592c-.117 1.775-.176 3.275-.176 4.475 0 3.086.392 7.593.721 10.831a.633.633 0 0 0 .63.569h12.583v3.8H18.461c-.261-2.191-1.194-10.362-1.194-15.2s.934-13.009 1.195-15.2h19.143c.164 1.375.593 5.1.888 8.867H33.1a.633.633 0 0 0-.633.633zm20.266 23.433h-19v-22.8h19z"/>
        <path id="Path_1139" d="M256.633 228.267h15.2a.633.633 0 0 0 .633-.633v-19a.633.633 0 0 0-.633-.633h-15.2a.633.633 0 0 0-.633.633v19a.633.633 0 0 0 .633.633zm.633-19H271.2v11.013l-6.424-10.706a.633.633 0 0 0-1.086 0l-6.424 10.706zm6.967 13.933a11.069 11.069 0 0 0 6.211-1.717l.622 1.036a12.96 12.96 0 0 1-13.666 0l.622-1.036a11.11 11.11 0 0 0 6.211 1.717zm-5.557-2.806l5.557-9.263 5.557 9.263a10.8 10.8 0 0 1-11.115 0zm-1.409 3.544a14.413 14.413 0 0 0 13.933 0V227h-13.933z" transform="translate(-221 -176.8)"/>
        <path id="Path_1140" d="M323.8 321.9a1.9 1.9 0 1 0-1.408 1.835 1.9 1.9 0 0 0 1.408-1.835zm-1.452.448a.633.633 0 1 1 0-.9.633.633 0 0 1 0 .9z" transform="translate(-279.933 -279.933)"/>
        <circle id="Ellipse_22" cx="1" cy="1" r="1" transform="translate(42 36.918)"/>
        <path id="Path_1141" d="M384.7 330.182a.633.633 0 0 0 1.133-.566l-.633-1.267a.633.633 0 0 0-1.133.567z" transform="translate(-338.865 -287.298)"/>
    </g>
</svg>
