<svg xmlns="http://www.w3.org/2000/svg" width="39.364" height="39.364" viewBox="0 0 39.364 39.364">
    <defs>
        <style>
            .cls-1{fill:#e9eef2}.cls-2{fill:#e1e3e6}.cls-3{fill:#7e8589}
        </style>
    </defs>
    <g id="_034-kitchen_tools" transform="translate(-16.001 -16)">
        <path id="Path_1173" d="M33.658 35.809h-4.882A2.624 2.624 0 0 1 26.2 33.7L24 24h14.433l-2.2 9.7a2.624 2.624 0 0 1-2.575 2.109z" class="cls-1" transform="translate(-7.343 -7.344)"/>
        <path id="Path_1174" d="M88 168h3.936v24.274a1.968 1.968 0 0 1-1.968 1.968A1.968 1.968 0 0 1 88 192.274z" class="cls-2" transform="translate(-66.094 -139.535)"/>
        <path id="Path_1175" d="M91.936 312v12.465a1.968 1.968 0 0 1-3.936 0V312z" class="cls-3" transform="translate(-66.094 -271.726)"/>
        <path id="Path_1176" d="M401.968 282.37a2.006 2.006 0 0 1-1.968-2.041V264h3.936v16.329a2.006 2.006 0 0 1-1.968 2.041z" class="cls-2" transform="translate(-352.508 -227.662)"/>
        <path id="Path_1177" d="M403.936 304v13.048a1.969 1.969 0 1 1-3.936 0V304z" class="cls-3" transform="translate(-352.508 -264.382)"/>
        <path id="Path_1178" d="M233.968 282.37a2.006 2.006 0 0 1-1.968-2.041V264h3.936v16.329a2.006 2.006 0 0 1-1.968 2.041z" class="cls-2" transform="translate(-198.285 -227.662)"/>
        <path id="Path_1179" d="M235.936 304v13.048a1.969 1.969 0 1 1-3.936 0V304z" class="cls-3" transform="translate(-198.285 -264.382)"/>
        <path id="Path_1180" d="M239.873 43.682H232V24a6 6 0 0 1 5.942 5.2z" class="cls-1" transform="translate(-198.285 -7.344)"/>
        <path id="Path_1181" d="M31.091 16H16.657a.656.656 0 0 0-.64.8l2.2 9.692a3.29 3.29 0 0 0 3.032 2.622v23.625a2.624 2.624 0 1 0 5.248 0V29.115a3.29 3.29 0 0 0 3.032-2.622l2.2-9.692a.656.656 0 0 0-.64-.8zm-5.9 36.739a1.312 1.312 0 1 1-2.624 0V40.93h2.624zm0-13.121h-2.629v-10.5h2.624zm3.058-13.408v.016a1.973 1.973 0 0 1-1.93 1.583h-4.886a1.973 1.973 0 0 1-1.93-1.582v-.016l-2.02-8.9h12.79z"/>
        <path id="Path_1182" d="M357.9 16c-3.311 0-5.9 4.611-5.9 10.5 0 4.2 1.321 7.75 3.28 9.44v16.73a2.625 2.625 0 1 0 5.249 0V35.937c1.96-1.689 3.28-5.24 3.28-9.44 0-5.886-2.593-10.497-5.909-10.497zm-2.03 17.584a13.6 13.6 0 0 0 .361 1.441c-1.69-1.37-2.918-4.723-2.918-8.528s1.228-7.158 2.919-8.528a13.564 13.564 0 0 0-.361 1.441 37.914 37.914 0 0 0-.59 7.087 37.954 37.954 0 0 0 .589 7.087zm3.347 19.082a1.314 1.314 0 1 1-2.624 0V40.274h2.624zm0-13.7h-2.624v-2.222a3.565 3.565 0 0 0 2.624 0zm-.483-6.064a7.474 7.474 0 0 1-.829 2.7 7.469 7.469 0 0 1-.829-2.7 38.46 38.46 0 0 1-.483-6.4 38.46 38.46 0 0 1 .483-6.4 7.473 7.473 0 0 1 .829-2.7 7.47 7.47 0 0 1 .829 2.7 38.46 38.46 0 0 1 .483 6.4 38.46 38.46 0 0 1-.483 6.398zm.845 2.127a13.6 13.6 0 0 0 .361-1.44 37.968 37.968 0 0 0 .589-7.087 37.954 37.954 0 0 0-.589-7.087 13.575 13.575 0 0 0-.361-1.441c1.69 1.37 2.918 4.723 2.918 8.528s-1.228 7.153-2.918 8.523z" transform="translate(-308.444)"/>
        <path id="Path_1183" d="M231.249 21.772A6.672 6.672 0 0 0 224.656 16a.656.656 0 0 0-.656.656v36.01a2.625 2.625 0 1 0 5.248 0V36.994h3.28a.656.656 0 0 0 .65-.743zm-3.312 30.895a1.314 1.314 0 1 1-2.624 0V40.274h2.624zm0-13.7h-2.624v-1.973h2.624zm-2.624-3.28V17.353a5.359 5.359 0 0 1 4.636 4.592l1.832 13.737z" transform="translate(-190.941)"/>
        <path id="Path_1184" d="M104.656 69.248a.656.656 0 0 0 .656-.656v-3.936a.656.656 0 0 0-1.312 0v3.936a.656.656 0 0 0 .656.656z" transform="translate(-80.782 -44.064)"/>
        <path id="Path_1185" d="M136.546 69.238a.656.656 0 0 0 .755-.539l.656-3.936a.656.656 0 0 0-1.294-.216l-.656 3.936a.656.656 0 0 0 .539.755z" transform="translate(-110.156 -44.062)"/>
        <path id="Path_1186" d="M64.663 68.7a.656.656 0 0 0 .646.548.671.671 0 0 0 .109-.009.656.656 0 0 0 .539-.755l-.657-3.939a.656.656 0 1 0-1.294.216z" transform="translate(-44.06 -44.061)"/>
    </g>
</svg>
