<svg xmlns="http://www.w3.org/2000/svg" width="41.781" height="37.607" viewBox="0 0 41.781 37.607">
    <defs>
        <style>
            .cls-1{fill:#ffc9c9}.cls-2{fill:#ed6f6d}
        </style>
    </defs>
    <g id="_035-meat" transform="translate(-16.047 -64)">
        <path id="Path_1187" d="M60.893 84.536a14.03 14.03 0 0 0-4.179-1.393c-1.75 0-4.518.709-6.268.7-1.577-.011-4.691-.7-6.268-.7A14.03 14.03 0 0 0 40 84.536V73.393A14.03 14.03 0 0 1 44.179 72c1.577 0 4.691.685 6.268.7 1.75.013 4.518-.7 6.268-.7a14.03 14.03 0 0 1 4.179 1.393z" class="cls-1" transform="translate(-21.868 -7.304)"/>
        <path id="Path_1188" d="M60.893 124.179a14.03 14.03 0 0 0-4.179-1.393c-1.75 0-4.518.709-6.268.7-1.577-.011-4.691-.7-6.268-.7A14.03 14.03 0 0 0 40 124.179v-2.786A14.03 14.03 0 0 1 44.179 120c1.577 0 4.691.685 6.268.7 1.75.013 4.518-.7 6.268-.7a14.03 14.03 0 0 1 4.179 1.393z" class="cls-2" transform="translate(-21.868 -51.125)"/>
        <path id="Path_1189" d="M152.035 236.875c0 4.875-4.09 7.661-10.906 7.661-9.987 0-12.269 0-17.722-1.393-1.826-.466-3.408-1.559-3.408-3.482v-2.786L152.035 232z" class="cls-2" transform="translate(-94.904 -153.375)"/>
        <path id="Path_1190" fill="#ff9494" d="M142.493 120h-.252c-8.633.145-10 7.677-12.7 9.746-1.966 1.507-5.453 1.393-6.134 1.393a3.446 3.446 0 0 0-3.407 3.486c0 1.923 1.582 3.016 3.408 3.482 5.453 1.393 9.542 1.393 17.722 1.393 6.816 0 10.906-4.365 10.906-9.75a9.648 9.648 0 0 0-9.543-9.75z" transform="translate(-94.904 -51.125)"/>
        <circle id="Ellipse_29" cx="4.179" cy="4.179" r="4.179" class="cls-1" transform="translate(44.596 74.446)"/>
        <path id="Path_1191" fill="#ed8989" d="M25.736 356.178l-1.353 1.8a1.458 1.458 0 0 0 0 1.97 1.251 1.251 0 0 0 1.848 0l2.119-2.378h4.007v-2.786H28.35l-2.119-2.378a1.251 1.251 0 0 0-1.848 0 1.458 1.458 0 0 0 0 1.97z" transform="translate(-7.261 -262.929)"/>
        <path id="Path_1192" d="M112.018 327.321a7.661 7.661 0 0 0 0-15.321c-4.875 0-9.053 4.179-12.536 4.179a3.482 3.482 0 1 0 0 6.964c3.482 0 7.661 4.178 12.536 4.178z" class="cls-1" transform="translate(-72.993 -226.411)"/>
        <path id="Path_1193" d="M47.589 68.179h-.264a11.149 11.149 0 0 0-7.6 2.823v-4.913a.7.7 0 0 0-.385-.623A13.98 13.98 0 0 0 34.846 64a22.869 22.869 0 0 0-3.2.355 21.649 21.649 0 0 1-3.061.341 26.166 26.166 0 0 1-2.993-.339A26.261 26.261 0 0 0 22.311 64a13.981 13.981 0 0 0-4.49 1.466.7.7 0 0 0-.385.623v11.143a.7.7 0 0 0 1.008.623 12.872 12.872 0 0 1 3.867-1.319 25.574 25.574 0 0 1 3.077.343 26.36 26.36 0 0 0 3.185.353 22.25 22.25 0 0 0 3.285-.358 22.043 22.043 0 0 1 2.988-.339 3.007 3.007 0 0 1 .624.083 6.4 6.4 0 0 1-1.255 1.454c-1.107.849-2.979 1.269-5.57 1.25H28.5a4.147 4.147 0 0 0-4.1 4.178v2.786a3.7 3.7 0 0 0 1.306 2.86 4.189 4.189 0 0 0-2.833 2.014H21.4l-1.91-2.144-.012-.016a1.947 1.947 0 0 0-2.864 0 2.168 2.168 0 0 0-.028 2.892L17.6 93.25l-1.014 1.35a2.168 2.168 0 0 0 .028 2.892 1.947 1.947 0 0 0 2.864 0l.012-.013 1.91-2.14h1.471a4.18 4.18 0 0 0 3.616 2.089c1.429 0 3.12.851 4.91 1.752 2.259 1.137 4.818 2.426 7.626 2.426a8.358 8.358 0 0 0 8.237-9.772c6.639-.286 10.567-3.356 10.567-8.335v-4.874a10.356 10.356 0 0 0-10.238-10.446zM22.37 93.946h-1.28a.7.7 0 0 0-.52.233l-2.112 2.37a.555.555 0 0 1-.828-.005.763.763 0 0 1 0-1.017.678.678 0 0 0 .049-.058l1.353-1.8a.7.7 0 0 0 0-.837l-1.353-1.8a.678.678 0 0 0-.049-.058.763.763 0 0 1 0-1.017.555.555 0 0 1 .828-.005l2.112 2.37a.7.7 0 0 0 .52.233h1.28a4.132 4.132 0 0 0 0 1.391zm-3.542-27.419a11.5 11.5 0 0 1 3.482-1.134 25.573 25.573 0 0 1 3.077.343 26.363 26.363 0 0 0 3.185.353 22.251 22.251 0 0 0 3.285-.358 22.043 22.043 0 0 1 2.988-.339 11.5 11.5 0 0 1 3.482 1.134v2.65a10.611 10.611 0 0 0-3.482-1 22.869 22.869 0 0 0-3.2.355 21.357 21.357 0 0 1-3.061.341 26.168 26.168 0 0 1-2.993-.339 26.261 26.261 0 0 0-3.28-.358 10.609 10.609 0 0 0-3.482 1zm0 4.179a11.5 11.5 0 0 1 3.482-1.134 25.571 25.571 0 0 1 3.077.343 26.363 26.363 0 0 0 3.185.353 22.538 22.538 0 0 0 3.285-.358 22.04 22.04 0 0 1 2.988-.339 11.5 11.5 0 0 1 3.482 1.134v1.258a10.611 10.611 0 0 0-3.482-1 22.868 22.868 0 0 0-3.2.355 21.408 21.408 0 0 1-3.061.341 26.17 26.17 0 0 1-2.993-.339 26.261 26.261 0 0 0-3.28-.358 10.609 10.609 0 0 0-3.482 1zm16.018 4.437a22.869 22.869 0 0 0-3.2.355 21.469 21.469 0 0 1-3.061.341 26.168 26.168 0 0 1-2.993-.339 26.261 26.261 0 0 0-3.28-.358 10.611 10.611 0 0 0-3.482 1v-2.65a11.5 11.5 0 0 1 3.482-1.134 25.574 25.574 0 0 1 3.077.343 26.359 26.359 0 0 0 3.185.353 22.286 22.286 0 0 0 3.285-.358 22.043 22.043 0 0 1 2.988-.339 9.475 9.475 0 0 1 2.884.867c-.548.737-1.021 1.478-1.458 2.162a5.349 5.349 0 0 0-1.427-.243zm4.179 25.071c-2.477 0-4.776-1.158-7-2.277-1.942-.978-3.776-1.9-5.537-1.9a2.786 2.786 0 1 1 0-5.571c1.76 0 3.595-.924 5.537-1.9 2.223-1.119 4.522-2.277 7-2.277a6.964 6.964 0 1 1 0 13.928zM25.8 86.435a6.365 6.365 0 0 0 2.535 1.221c.547.14 1.082.266 1.612.38a13.981 13.981 0 0 1-2.04.809 2.89 2.89 0 0 1-2.107-2.41zm21.1 4.019a8.324 8.324 0 0 0-.641-1.383 12.077 12.077 0 0 0 8.453-3.045 9.749 9.749 0 0 0 1.713-2.141c-.204 4.036-3.639 6.403-9.525 6.569zm6.857-5.442a10.727 10.727 0 0 1-7.531 2.666h-.978a8.338 8.338 0 0 0-6.223-2.786 15.975 15.975 0 0 0-7.019 2.122c-1.092-.183-2.183-.414-3.329-.707-2.51-.641-2.884-2.034-2.884-2.807a2.752 2.752 0 0 1 2.707-2.786h.131c2.9.02 5.068-.5 6.427-1.537a11.608 11.608 0 0 0 2.361-3c1.846-2.9 4.143-6.5 9.932-6.6h.234a8.961 8.961 0 0 1 8.846 9.053 8.652 8.652 0 0 1-2.674 6.382z"/>
        <path id="Path_1194" d="M340.875 176a4.875 4.875 0 1 0 4.875 4.875 4.875 4.875 0 0 0-4.875-4.875zm0 8.357a3.482 3.482 0 1 1 3.482-3.482 3.482 3.482 0 0 1-3.482 3.482z" transform="translate(-292.1 -102.25)"/>
    </g>
</svg>
