<svg xmlns="http://www.w3.org/2000/svg" width="39" height="39" viewBox="0 0 39 39">
    <defs>
        <style>
            .cls-1{fill:#a3d4f7}.cls-2{fill:#e9eef2}.cls-3{fill:#e1e3e6}.cls-4{fill:#2d85cc}
        </style>
    </defs>
    <g id="_036-milk" transform="translate(-48 -16)">
        <path id="Path_1195" d="M296 24h12v3h-12z" class="cls-1" transform="translate(-224.75 -7.25)"/>
        <path id="Path_1196" d="M282 65l-3-9h-12l-3 9z" class="cls-2" transform="translate(-195.75 -36.25)"/>
        <path id="Path_1197" d="M56 120h16.5v34.5H56z" class="cls-1" transform="translate(-7.25 -100.25)"/>
        <path id="Path_1198" d="M56 280c0 5.385 7.387 9.75 16.5 9.75v9.75H56z" class="cls-2" transform="translate(-7.25 -245.25)"/>
        <path id="Path_1199" d="M72.5 288c0 5.385-7.388 9.75-16.5 9.75v9h16.5" class="cls-3" transform="translate(-7.25 -252.5)"/>
        <path id="Path_1200" d="M80 88h4.5v3H80z" class="cls-4" transform="translate(-29 -65.25)"/>
        <path id="Path_1201" d="M274.8 152H264v31.5h18V152z" class="cls-1" transform="translate(-195.75 -129.25)"/>
        <path id="Path_1202" d="M282 256v21.75h-18V263.5s3.716-5.607 9.6-4.687c6 .937 8.4-2.813 8.4-2.813z" class="cls-3" transform="translate(-195.75 -223.5)"/>
        <circle id="Ellipse_30" cx="1.5" cy="1.5" r="1.5" class="cls-4" transform="translate(76 22)"/>
        <path id="Path_1203" d="M192.25 184v1.387a5.625 5.625 0 0 0 .855 2.981l.045.072a18.751 18.751 0 0 1 2.85 9.938V209.5a3 3 0 0 1-3 3h-6a3 3 0 0 1-3-3v-11.123a18.751 18.751 0 0 1 2.85-9.937l.045-.072a5.625 5.625 0 0 0 .855-2.981V184" class="cls-3" transform="translate(-123.25 -158.25)"/>
        <path id="Path_1204" d="M196 263.626v11.122a3 3 0 0 1-3 3h-6a3 3 0 0 1-3-3v-11.122a18.756 18.756 0 0 1 1.621-7.626h8.758a18.755 18.755 0 0 1 1.621 7.626z" class="cls-2" transform="translate(-123.25 -223.498)"/>
        <rect id="Rectangle_14" width="9" height="3" class="cls-4" rx="1.5" transform="translate(62 27)"/>
        <path id="Path_1205" d="M122.25 184l-.547.973c-.374.665-.953 1.277-1.308 1.9A2.285 2.285 0 0 0 120 188a2.266 2.266 0 0 0 4.5 0 2.285 2.285 0 0 0-.395-1.129c-.355-.621-.934-1.233-1.308-1.9z" class="cls-3" transform="translate(-65.25 -154.673)"/>
        <path id="Path_1206" d="M338.25 80a2.25 2.25 0 1 0 2.25 2.25 2.25 2.25 0 0 0-2.25-2.25zm0 3a.75.75 0 1 1 .75-.75.75.75 0 0 1-.75.75z" transform="translate(-261 -58)"/>
        <path id="Path_1207" d="M86.962 26.844L84 19.144V16.65a.705.705 0 0 0-.75-.65h-12a.705.705 0 0 0-.75.65v2.494L67.709 26.4H66v-1.95a.705.705 0 0 0-.75-.65h-9v-1.95a.705.705 0 0 0-.75-.65H51a.705.705 0 0 0-.75.65v1.95h-1.5a.705.705 0 0 0-.75.65v29.9a.705.705 0 0 0 .75.65h37.5a.705.705 0 0 0 .75-.65v-27.3a.569.569 0 0 0-.039-.205zM72 17.3h10.5v1.3H72zm-.209 2.6h10.918l2.5 6.5H69.291zm-2.041 7.8a.657.657 0 1 1 0 1.3h-6a.657.657 0 1 1 0-1.3zm-.531 6.08l.045.063q.356.494.667 1.007h-6.362q.312-.513.667-1.007l.045-.062a4.99 4.99 0 0 0 .969-2.928V30.3h3v.552a4.99 4.99 0 0 0 .969 2.928zM51.75 22.5h3v1.3h-3zm-2.25 2.6h15v1.3h-.75a2.116 2.116 0 0 0-2.25 1.95 2.116 2.116 0 0 0 2.25 1.95v.552a3.816 3.816 0 0 1-.741 2.239l-.045.062A15.265 15.265 0 0 0 60 42.11v1.423a17.717 17.717 0 0 1-1.953.843c-5.2-1.343-8.547-4.045-8.547-6.926zm0 16.093a9.608 9.608 0 0 0 1.34 1.289 16.563 16.563 0 0 0 4.931 2.587 29.046 29.046 0 0 1-6.271.822zm0 12.507v-6.509A27.3 27.3 0 0 0 60 45.019v6.731a2.961 2.961 0 0 0 .752 1.95zM72 51.75a2.119 2.119 0 0 1-2.25 1.95h-6a2.119 2.119 0 0 1-2.25-1.95v-9.64a13.805 13.805 0 0 1 1.372-5.973.865.865 0 0 0 .128.013h7.5a.866.866 0 0 0 .129-.01A13.8 13.8 0 0 1 72 42.11zm13.5 1.95H72.748a2.961 2.961 0 0 0 .752-1.95v-9.64a14.731 14.731 0 0 0-.3-2.943 8.774 8.774 0 0 1 4.531-.588 14.919 14.919 0 0 0 2 .14A10.009 10.009 0 0 0 85.5 37.1zm0-18.412c-.519.567-2.784 2.651-7.534 2.007a10.4 10.4 0 0 0-5.09.575 15.8 15.8 0 0 0-2.34-4.717l-.045-.062a3.816 3.816 0 0 1-.741-2.239V30.3a2.37 2.37 0 0 0 1.837-.824 1.735 1.735 0 0 0 .284-1.776H85.5z"/>
        <path id="Path_1208" d="M115 183.5h.112a2.936 2.936 0 0 0 2.056-.8 2.678 2.678 0 0 0 .832-1.951 2.965 2.965 0 0 0-.494-1.5 9.653 9.653 0 0 0-.677-.982 8.59 8.59 0 0 1-.628-.911l-.547-.973a.75.75 0 0 0-1.307 0l-.547.973a8.59 8.59 0 0 1-.628.911 9.653 9.653 0 0 0-.677.982 2.965 2.965 0 0 0-.494 1.5 2.678 2.678 0 0 0 .832 1.951 2.954 2.954 0 0 0 2.167.8zm-1.2-3.505a8.449 8.449 0 0 1 .574-.826c.215-.286.436-.58.63-.9.194.316.415.61.63.9a8.449 8.449 0 0 1 .574.826 1.69 1.69 0 0 1 .3.757 1.192 1.192 0 0 1-.37.868 1.468 1.468 0 0 1-1.1.38h-.064a1.466 1.466 0 0 1-1.1-.38 1.192 1.192 0 0 1-.37-.868 1.692 1.692 0 0 1 .29-.759z" transform="translate(-57.998 -147.4)"/>
    </g>
</svg>
