<svg xmlns="http://www.w3.org/2000/svg" width="38.72" height="38.72" viewBox="0 0 38.72 38.72">
    <defs>
        <style>
            .cls-2{fill:#eb423f}.cls-3{fill:#ad6643}
        </style>
    </defs>
    <g id="_040-pet_food" transform="translate(-16 -16)">
        <path id="Path_1222" fill="#ffb632" d="M46.587 72H25.936L24 78.453v27.1h24.523v-27.1z" transform="translate(-7.355 -51.483)"/>
        <path id="Path_1223" d="M24 456h24.523v2.581H24z" class="cls-2" transform="translate(-7.355 -404.507)"/>
        <path id="Path_1224" d="M48 24h20.651v3.872H48z" class="cls-2" transform="translate(-29.419 -7.355)"/>
        <g id="Group_35" transform="translate(21.531 31.488)">
            <ellipse id="Ellipse_34" cx="1.5" cy="2.5" class="cls-3" rx="1.5" ry="2.5" transform="translate(3.469 -.488)"/>
            <ellipse id="Ellipse_35" cx="1" cy="1.5" class="cls-3" rx="1" ry="1.5" transform="translate(.469 3.512)"/>
            <ellipse id="Ellipse_36" cx="1.5" cy="2.5" class="cls-3" rx="1.5" ry="2.5" transform="translate(8.469 -.488)"/>
            <path id="Path_1225" d="M113.362 282.592a2.555 2.555 0 0 0-1.043.219 1.994 1.994 0 0 0 .075-.542 2.6 2.6 0 0 0-5.163 0 2 2 0 0 0 .075.542 2.555 2.555 0 0 0-1.043-.219 1.959 1.959 0 1 0 2.259 1.936 1.68 1.68 0 0 0-.031-.319 2.9 2.9 0 0 0 2.643 0 1.679 1.679 0 0 0-.031.319 2.286 2.286 0 1 0 2.259-1.936z" class="cls-3" transform="translate(-102.437 -274.202)"/>
            <circle id="Ellipse_37" cx="1.5" cy="1.5" r="1.5" class="cls-3" transform="translate(12.469 3.512)"/>
        </g>
        <path id="Path_1226" fill="#596063" d="M185.291 456h21.941a1.291 1.291 0 0 1 1.291 1.291v1.291H184v-1.291a1.291 1.291 0 0 1 1.291-1.291z" transform="translate(-154.448 -404.507)"/>
        <path id="Path_1227" fill="#7e8589" d="M221.941 397.163H200l1.783-3.986a2.356 2.356 0 0 1 2.191-1.177h13.993a2.356 2.356 0 0 1 2.191 1.177z" transform="translate(-169.157 -345.67)"/>
        <path id="Path_1228" d="M120 202.586c0 1.447.85 2.581 1.936 2.581s1.936-1.134 1.936-2.581-.85-2.581-1.936-2.581-1.936 1.134-1.936 2.581zm2.581 0c0 .788-.382 1.291-.645 1.291s-.645-.5-.645-1.291.382-1.291.645-1.291.65.505.65 1.291z" transform="translate(-95.615 -169.162)"/>
        <path id="Path_1229" d="M73.585 245.117a1.537 1.537 0 0 0 .373.046 1.615 1.615 0 0 0 1.063-.418 3.171 3.171 0 0 0 .652-3.364 2.056 2.056 0 0 0-1.352-1.336 1.57 1.57 0 0 0-1.436.372 3.171 3.171 0 0 0-.652 3.364 2.056 2.056 0 0 0 1.352 1.336zm.145-3.725a.346.346 0 0 1 .223-.1.215.215 0 0 1 .055.007c.134.033.325.195.461.548a1.9 1.9 0 0 1-.293 1.925c-.147.128-.245.1-.278.1-.134-.033-.325-.195-.461-.548a1.9 1.9 0 0 1 .293-1.925z" transform="translate(-51.499 -205.93)"/>
        <path id="Path_1230" d="M187.019 200.408a1.57 1.57 0 0 0-1.436-.372 2.056 2.056 0 0 0-1.352 1.336 3.171 3.171 0 0 0 .652 3.364 1.615 1.615 0 0 0 1.063.418 1.533 1.533 0 0 0 .373-.047 2.056 2.056 0 0 0 1.352-1.336 3.171 3.171 0 0 0-.652-3.363zm-.552 2.9c-.136.353-.327.514-.461.548-.032.008-.131.032-.278-.1a1.9 1.9 0 0 1-.293-1.925c.136-.353.327-.514.461-.548a.211.211 0 0 1 .055-.007.345.345 0 0 1 .223.1 1.9 1.9 0 0 1 .292 1.925z" transform="translate(-154.463 -169.148)"/>
        <path id="Path_1231" d="M16.645 54.72h37.429a.645.645 0 0 0 .645-.645v-1.291a1.939 1.939 0 0 0-1.494-1.884l-1.635-3.656a3 3 0 0 0-2.78-1.558h-7V26.971a.648.648 0 0 0-.027-.186l-1.909-6.362v-3.778a.645.645 0 0 0-.642-.645H18.581a.645.645 0 0 0-.645.645v3.777l-1.909 6.362a.648.648 0 0 0-.027.186v27.1a.645.645 0 0 0 .645.645zm36.784-1.936v.645H30.2v-.645a.646.646 0 0 1 .645-.645h21.939a.646.646 0 0 1 .645.645zm-4.62-5.808a1.739 1.739 0 0 1 1.6.795l1.377 3.077H31.838l1.377-3.077a1.739 1.739 0 0 1 1.6-.795zM19.227 17.291h19.36v2.581h-19.36zm-1.936 10.325h3.227a.645.645 0 1 0 0-1.291h-3l1.549-5.163h19.685l1.548 5.163h-2.36a.645.645 0 1 0 0 1.291h2.581v18.069h-5.704a3 3 0 0 0-2.78 1.558l-1.612 3.6H17.291zm0 24.523h11.727a1.927 1.927 0 0 0-.111.645v.645H17.291z"/>
        <path id="Path_1232" d="M96.645 145.291h12.261a.645.645 0 1 0 0-1.291H96.645a.645.645 0 1 0 0 1.291z" transform="translate(-73.547 -117.675)"/>
        <path id="Path_1233" d="M108.912 277.174a2.76 2.76 0 0 0-2.9-2.581 3.327 3.327 0 0 0-.34.017 3.281 3.281 0 0 0-6.418 0 3.329 3.329 0 0 0-.34-.017 2.6 2.6 0 1 0 0 5.163 2.856 2.856 0 0 0 2.832-2.009 3.611 3.611 0 0 0 1.435 0 2.856 2.856 0 0 0 2.832 2.009 2.76 2.76 0 0 0 2.899-2.582zm-4.517 0a1.031 1.031 0 0 1 .019-.2.645.645 0 0 0-.933-.694 2.257 2.257 0 0 1-2.045 0 .645.645 0 0 0-.933.694 1.036 1.036 0 0 1 .019.2 1.654 1.654 0 1 1-1.613-1.291 1.925 1.925 0 0 1 .78.163.645.645 0 0 0 .885-.764 1.354 1.354 0 0 1-.051-.367 1.968 1.968 0 0 1 3.872 0 1.358 1.358 0 0 1-.051.367.645.645 0 0 0 .885.764 1.925 1.925 0 0 1 .78-.163 1.323 1.323 0 1 1-1.613 1.291z" transform="translate(-73.551 -235.36)"/>
        <path id="Path_1234" d="M233.587 240.041a2.056 2.056 0 0 0-1.352 1.336 3.17 3.17 0 0 0 .652 3.364 1.615 1.615 0 0 0 1.063.418 1.538 1.538 0 0 0 .373-.046 2.056 2.056 0 0 0 1.352-1.336 3.171 3.171 0 0 0-.652-3.364 1.57 1.57 0 0 0-1.436-.372zm.883 3.272c-.136.353-.327.514-.461.548-.032.008-.131.032-.278-.1a1.9 1.9 0 0 1-.293-1.925c.136-.353.327-.514.461-.548a.214.214 0 0 1 .055-.008.345.345 0 0 1 .223.1 1.9 1.9 0 0 1 .293 1.933z" transform="translate(-198.595 -205.926)"/>
        <path id="Path_1235" d="M83.227 416h-2.582a.645.645 0 1 0 0 1.291h2.581a.645.645 0 0 0 0-1.291z" transform="translate(-58.837 -367.734)"/>
        <ellipse id="Ellipse_38" cx="1" cy=".5" rx="1" ry=".5" transform="translate(18 48)"/>
    </g>
</svg>
