<svg xmlns="http://www.w3.org/2000/svg" width="37.851" height="37.851" viewBox="0 0 37.851 37.851">
    <defs>
        <style>
            .cls-3{fill:#c7312e}.cls-4{fill:#e09f2c}.cls-5{fill:#f7b030}
        </style>
    </defs>
    <g id="_046-snacks" transform="translate(-16 -16)">
        <path id="Path_1261" fill="#eb423f" d="M45.449 87.542H25.262S24 77.449 24 71.771 25.262 56 25.262 56h20.187s1.262 10.094 1.262 15.771-1.262 15.771-1.262 15.771z" transform="translate(-7.369 -36.846)"/>
        <ellipse id="Ellipse_45" cx="6" cy="3.5" fill="#a82a27" rx="6" ry="3.5" transform="translate(22 22.851)"/>
        <path id="Path_1262" d="M45.449 26.523H25.262L24 24h22.711z" class="cls-3" transform="translate(-7.369 -7.369)"/>
        <path id="Path_1263" d="M25.262 456h20.187l1.262 2.523H24z" class="cls-3" transform="translate(-7.369 -405.303)"/>
        <path id="Path_1264" d="M126.962 264c2.439 0 4.416.433 4.416 2.523s-1.977 3.785-4.416 3.785-4.416-1.695-4.416-3.785 1.977-2.523 4.416-2.523z" class="cls-4" transform="translate(-98.144 -228.444)"/>
        <path id="Path_1265" d="M75.9 243.983c1.725 1.725 2.816 3.429 1.338 4.907s-4.074 1.279-5.8-.446-1.924-4.321-.446-5.8 3.181-.385 4.908 1.339z" class="cls-5" transform="translate(-49.742 -208.134)"/>
        <path id="Path_1266" d="M200 184h17.664v23.972H200z" class="cls-5" transform="translate(-169.49 -154.752)"/>
        <path id="Path_1267" d="M424 184h5.047v23.972H424z" class="cls-4" transform="translate(-375.827 -154.752)"/>
        <ellipse id="Ellipse_46" cx="4.5" cy="4" fill="#d49073" rx="4.5" ry="4" transform="translate(35 38.851)"/>
        <path id="Path_1268" fill="#ad6643" d="M248 224h10.094v2.523H248z" transform="translate(-213.705 -191.598)"/>
        <path id="Path_1269" d="M126.939 136h-6.308a.631.631 0 1 0 0 1.262h6.308a.631.631 0 1 0 0-1.262z" transform="translate(-95.799 -110.537)"/>
        <path id="Path_1270" d="M53.22 28.617H39.671c-.329-4.221-.829-8.42-.942-9.351l1.177-2.353a.631.631 0 0 0-.565-.913h-22.71a.631.631 0 0 0-.564.913l1.177 2.353C17.071 20.685 16 29.7 16 34.925s1.071 14.241 1.243 15.659l-1.177 2.353a.631.631 0 0 0 .564.913h36.59a.631.631 0 0 0 .631-.631V29.248a.631.631 0 0 0-.631-.631zm-14.9-11.355l-.631 1.262H18.282l-.631-1.262zm-8.441 35.327H17.652l.631-1.262h11.6zm0-11.482a4.468 4.468 0 0 1-1.893.048c1.674-1.731.486-3.67-.579-4.9a12.971 12.971 0 0 1 1.412-.068c.391 0 .742.012 1.061.035zm-2.831-.8a2.89 2.89 0 0 1-2.313.8A4.322 4.322 0 0 1 20.9 37.27a2.89 2.89 0 0 1 .8-2.313 1.493 1.493 0 0 1 1.079-.508 1.791 1.791 0 0 1 .618.122 7.056 7.056 0 0 1 2.312 1.729c2.352 2.352 2.033 3.32 1.338 4.015zm2.831-5.352c-.325-.021-.676-.032-1.061-.032a10.88 10.88 0 0 0-2.471.229 7.612 7.612 0 0 0-2.52-1.766 2.714 2.714 0 0 0-3.025.678 4.129 4.129 0 0 0-1.161 3.3 5.582 5.582 0 0 0 5 5q.187.014.371.014a4.3 4.3 0 0 0 1.634-.313 5.681 5.681 0 0 0 2.175.431 5.768 5.768 0 0 0 1.06-.1v7.669H18.452c-.26-2.182-1.19-10.322-1.19-15.14s.93-12.958 1.19-15.14h19.069c.163 1.37.591 5.083.885 8.832h-5.188a3.062 3.062 0 0 0 1.708-2.523c0-1.094-.78-2.086-2.2-2.795a10.848 10.848 0 0 0-4.743-.991 10.848 10.848 0 0 0-4.743.991c-1.416.708-2.2 1.7-2.2 2.795s.78 2.086 2.2 2.795a10.848 10.848 0 0 0 4.743.991 12.932 12.932 0 0 0 1.893-.137zm-1.893-6.341c-3.346 0-5.678-1.33-5.678-2.523s2.332-2.523 5.678-2.523 5.678 1.33 5.678 2.523-2.332 2.526-5.678 2.526zm19.556 23.975H31.14v-22.71h16.4zm5.047 0H48.8v-22.71h3.785z"/>
        <path id="Path_1271" d="M253.047 288a5.047 5.047 0 1 0 5.047 5.047 5.047 5.047 0 0 0-5.047-5.047zm0 8.832a3.775 3.775 0 0 1-.906-.11.631.631 0 1 0-.974-.391 3.779 3.779 0 0 1-1.176-5.514.634.634 0 1 0 .061-.08 3.78 3.78 0 0 1 2.995-1.474.631.631 0 0 0 1.227.205 3.785 3.785 0 0 1-1.227 7.365z" transform="translate(-213.705 -250.551)"/>
        <circle id="Ellipse_47" cx="1" cy="1" r="1" transform="translate(37 41.851)"/>
        <circle id="Ellipse_48" cx=".5" cy=".5" r=".5" transform="translate(40 43.851)"/>
        <circle id="Ellipse_49" cx="1" cy="1" r="1" transform="translate(42 41.851)"/>
        <ellipse id="Ellipse_50" cx=".5" cy="1" rx=".5" ry="1" transform="translate(39 39.851)"/>
        <path id="Path_1272" d="M240.631 219.785h10.094a.631.631 0 0 0 .631-.631v-2.523a.631.631 0 0 0-.631-.631h-10.094a.631.631 0 0 0-.631.631v2.523a.631.631 0 0 0 .631.631zm.631-2.523h8.832v1.262h-8.832z" transform="translate(-206.336 -184.229)"/>
        <path id="Path_1273" d="M277.678 440h-5.047a.631.631 0 0 0 0 1.262h5.047a.631.631 0 1 0 0-1.262z" transform="translate(-235.813 -390.565)"/>
        <path id="Path_1274" d="M96.631 401.262h3.154a.631.631 0 0 0 0-1.262h-3.154a.631.631 0 0 0 0 1.262z" transform="translate(-73.691 -353.719)"/>
        <ellipse id="Ellipse_51" cx=".5" cy="1" rx=".5" ry="1" transform="translate(20 45.851)"/>
    </g>
</svg>
