<svg xmlns="http://www.w3.org/2000/svg" width="39.111" height="39.111" viewBox="0 0 39.111 39.111">
    <defs>
        <style>
            .cls-1{fill:#ffd33a}.cls-2{fill:#ea9f26}.cls-3{fill:#e1e3e6}.cls-6{fill:#266fab}.cls-8{fill:#e9eef2}
        </style>
    </defs>
    <g id="_047-toiletries" transform="translate(-16 -16)">
        <path id="Path_1275" d="M217.3 124.859a1.349 1.349 0 0 1-1.3-1.391V104h2.607v19.469a1.349 1.349 0 0 1-1.307 1.39z" class="cls-1" transform="translate(-183.704 -80.83)"/>
        <path id="Path_1276" d="M40 440h9.126v3.911H40z" class="cls-2" transform="translate(-22.045 -389.452)"/>
        <path id="Path_1277" d="M34.43 94.637H25.3L24 64h11.733z" class="cls-1" transform="translate(-7.348 -44.089)"/>
        <path id="Path_1278" d="M35.733 64l-.111 2.607H24.111L24 64z" class="cls-2" transform="translate(-7.348 -44.089)"/>
        <path id="Path_1279" d="M248 24h3.911v7.822H248z" class="cls-3" transform="translate(-213.096 -7.348)"/>
        <path id="Path_1280" d="M217.3 24h1.3a1.3 1.3 0 0 1 1.3 1.3v5.215a1.3 1.3 0 0 1-1.3 1.3H216V25.3a1.3 1.3 0 0 1 1.3-1.3z" class="cls-1" transform="translate(-183.704 -7.348)"/>
        <path id="Path_1281" d="M88 232h18.252v20.859H88z" class="cls-3" transform="translate(-66.134 -198.4)"/>
        <rect id="Rectangle_15" width="14" height="26" fill="#3397e8" rx="7" transform="rotate(180 27 27)"/>
        <path id="Path_1282" d="M365.215 106.607V104H361.3v2.607a1.3 1.3 0 0 0-1.3 1.3v1.3h6.519v-1.3a1.3 1.3 0 0 0-1.304-1.3z" class="cls-3" transform="translate(-315.97 -80.83)"/>
        <path id="Path_1283" d="M1.3 0h7.826v1.3a1.3 1.3 0 0 1-1.3 1.3H1.3a1.3 1.3 0 0 1 0-2.6z" class="cls-3" transform="rotate(180 26.578 9.63)"/>
        <path id="Path_1284" fill="#c3c6c7" d="M0 0h2.607v3.911H0z" transform="rotate(180 24.297 11.585)"/>
        <ellipse id="Ellipse_52" cx="4" cy="2.5" class="cls-6" rx="4" ry="2.5" transform="translate(43 32)"/>
        <rect id="Rectangle_16" width="16" height="10" fill="#a3d4f7" rx="5" transform="translate(30 41)"/>
        <path id="Path_1285" d="M168 440h19.556v1.3a2.607 2.607 0 0 1-2.607 2.607h-14.342A2.607 2.607 0 0 1 168 441.3z" class="cls-6" transform="translate(-139.615 -389.452)"/>
        <path id="Path_1286" d="M264 80h2.607v1.3H264z" class="cls-8" transform="translate(-227.793 -58.785)"/>
        <path id="Path_1287" d="M264 48h2.607v1.3H264z" class="cls-8" transform="translate(-227.793 -29.393)"/>
        <path id="Path_1288" d="M51.852 27.733H51.2v-.652a1.959 1.959 0 0 0-1.3-1.843V23.17a.652.652 0 0 0-.652-.652v-2.607h2.607a1.956 1.956 0 0 0 0-3.911h-6.522a1.958 1.958 0 0 0-1.956 1.956v1.3a.652.652 0 0 0 .652.652h1.3v2.607a.652.652 0 0 0-.652.652v2.068a1.959 1.959 0 0 0-1.3 1.843v.652h-.652a3.263 3.263 0 0 0-3.259 3.259v1.956h-3.911v-7.819h3.259a.652.652 0 0 0 .652-.652v-7.822a.652.652 0 0 0-.651-.652H33.6a1.958 1.958 0 0 0-1.956 1.956v14.992h-3.161l.554-13.009a.652.652 0 0 0-.651-.68H16.652a.652.652 0 0 0-.651.68l1.3 30.623v3.9a.652.652 0 0 0 .652.652h33.9a3.263 3.263 0 0 0 3.259-3.259V30.993a3.263 3.263 0 0 0-3.26-3.26zm-7.17-9.126v-.652a.653.653 0 0 1 .652-.652h6.519a.652.652 0 1 1 0 1.3zm3.911 5.215v1.3h-2.608v-1.3zm-1.956-1.3v-2.611h1.3v2.607zm-1.956 4.563a.653.653 0 0 1 .652-.652h3.911a.653.653 0 0 1 .652.652v.652h-5.215zm-1.3 14.993a1.958 1.958 0 0 1 1.956 1.956v3.911a1.958 1.958 0 0 1-1.959 1.955h-10.43a1.958 1.958 0 0 1-1.956-1.956V44.03a1.958 1.958 0 0 1 1.956-1.956zM36.747 17.3h1.416v1.3a.652.652 0 1 0 0 1.3v1.3a.652.652 0 0 0 0 1.3v1.3h-1.416a1.946 1.946 0 0 0 .112-.652v-5.192a1.946 1.946 0 0 0-.112-.656zm-3.8.652a.653.653 0 0 1 .653-.652h1.3a.653.653 0 0 1 .652.652v5.218a.653.653 0 0 1-.652.652h-1.952zm0 7.17h1.3v7.822h-1.3zm-15.615-4.559H27.7l-.055 1.3H17.387zm3.883 33.245h-2.608V51.2h2.607zm0-20.208v16.3H18.58l-1.137-26.73h10.151l-.416 9.778h-5.312a.652.652 0 0 0-.651.652zm5.215 20.208v-.652a.652.652 0 1 0-1.3 0v.652h-2.612V34.252h2.607v.648a.652.652 0 1 0 1.3 0v-.652h13.042v6.522h-6.519a3.263 3.263 0 0 0-3.259 3.259v3.911a3.242 3.242 0 0 0 .654 1.956h-1.958a.652.652 0 0 0-.652.652v1.3a3.242 3.242 0 0 0 .654 1.956zm20.859-1.956a1.958 1.958 0 0 1-1.956 1.956H30.992a1.958 1.958 0 0 1-1.956-1.956V51.2h18.253zm6.519 0a1.958 1.958 0 0 1-1.956 1.956h-3.913a3.242 3.242 0 0 0 .654-1.956v-1.3a.652.652 0 0 0-.652-.652h-1.958a3.242 3.242 0 0 0 .654-1.956V44.03a3.263 3.263 0 0 0-3.259-3.259H40.77v-9.778a1.958 1.958 0 0 1 1.956-1.956h9.126a1.958 1.958 0 0 1 1.956 1.956z"/>
        <path id="Path_1289" d="M348.563 200C346 200 344 201.432 344 203.259s2 3.259 4.563 3.259 4.563-1.432 4.563-3.259-2.004-3.259-4.563-3.259zm0 5.215c-1.767 0-3.259-.9-3.259-1.956s1.493-1.956 3.259-1.956 3.259.9 3.259 1.956-1.492 1.956-3.259 1.956z" transform="translate(-301.274 -169.007)"/>
        <path id="Path_1290" d="M128.652 272a.652.652 0 0 0-.652.652v1.3a.652.652 0 0 0 1.3 0v-1.3a.652.652 0 0 0-.648-.652z" transform="translate(-102.874 -235.141)"/>
        <path id="Path_1291" d="M128.652 320a.652.652 0 0 0-.652.652v1.3a.652.652 0 0 0 1.3 0v-1.3a.652.652 0 0 0-.648-.652z" transform="translate(-102.874 -279.23)"/>
        <path id="Path_1292" d="M128.652 368a.652.652 0 0 0-.652.652v1.3a.652.652 0 0 0 1.3 0v-1.3a.652.652 0 0 0-.648-.652z" transform="translate(-102.874 -323.318)"/>
        <path id="Path_1293" d="M128.652 416a.652.652 0 0 0-.652.652v1.3a.652.652 0 0 0 1.3 0v-1.3a.652.652 0 0 0-.648-.652z" transform="translate(-102.874 -367.407)"/>
    </g>
</svg>
