<svg xmlns="http://www.w3.org/2000/svg" width="39.863" height="38.577" viewBox="0 0 39.863 38.577">
    <defs>
        <style>
            .cls-3{fill:#e9eef2}.cls-6{fill:#95573a}.cls-9{fill:#7a4830}
        </style>
    </defs>
    <g id="_048-toys" transform="translate(-8.001 -16.005)">
        <path id="Path_1294" fill="#3397e8" d="M328 224h9v9h-9z" transform="translate(-294.281 -191.278)"/>
        <path id="Path_1295" fill="#ffb632" d="M384 336h9v9h-9z" transform="translate(-345.78 -294.277)"/>
        <circle id="Ellipse_53" cx="2" cy="2" r="2" class="cls-3" transform="translate(36.001 35.005)"/>
        <path id="Path_1296" fill="#35a872" d="M272 336h9v9h-9z" transform="translate(-242.782 -294.277)"/>
        <path id="Path_1297" d="M304 368h3.858v3.858H304z" class="cls-3" transform="translate(-272.21 -323.705)"/>
        <path id="Path_1298" fill="#eb423f" d="M337 150.43h-9l4.5-6.43z" transform="translate(-294.281 -117.708)"/>
        <path id="Path_1299" d="M419.858 371.858H416l1.929-3.858z" class="cls-3" transform="translate(-375.209 -323.705)"/>
        <path id="Path_1300" d="M19.3 236.859a3.215 3.215 0 0 1-3.208-3q.014-.453.062-.883c.67-6.184 6.14-8.976 12.79-8.976s12.12 2.792 12.79 8.976q.047.43.062.882a3.215 3.215 0 0 1-3.208 3z" class="cls-6" transform="translate(-7.439 -191.278)"/>
        <ellipse id="Ellipse_54" cx="6.5" cy="9" fill="#a36f58" rx="6.5" ry="9" transform="translate(15.001 35.005)"/>
        <ellipse id="Ellipse_55" cx="4" cy="3.5" class="cls-6" rx="4" ry="3.5" transform="translate(25.001 17.005)"/>
        <ellipse id="Ellipse_56" cx="4" cy="3.5" class="cls-6" rx="4" ry="3.5" transform="translate(10.001 17.005)"/>
        <ellipse id="Ellipse_57" cx="9.5" cy="9" fill="#ad6643" rx="9.5" ry="9" transform="translate(12.001 19.005)"/>
        <ellipse id="Ellipse_58" cx="4.5" cy="5" class="cls-9" rx="4.5" ry="5" transform="translate(11.001 44.005)"/>
        <ellipse id="Ellipse_59" cx="4.5" cy="5" class="cls-9" rx="4.5" ry="5" transform="translate(23.001 44.005)"/>
        <path id="Path_1301" d="M117.054 159.075c2.836 0 5.144-1.875 5.144-4.179a.643.643 0 0 0-1.286 0c0 1.431-1.393 2.622-3.215 2.852v-2.041a1.453 1.453 0 0 0 .2-.117l1.091-.779a1.557 1.557 0 0 0 .642-1.269 1.513 1.513 0 0 0-1.485-1.542h-2.182a1.513 1.513 0 0 0-1.481 1.539 1.557 1.557 0 0 0 .642 1.269l1.091.779a1.446 1.446 0 0 0 .2.117v2.041c-1.822-.23-3.215-1.421-3.215-2.852a.643.643 0 0 0-1.286 0c-.004 2.307 2.303 4.182 5.14 4.182zm-1.182-5.31a.274.274 0 0 1-.1-.223.233.233 0 0 1 .195-.254h2.183a.233.233 0 0 1 .195.254.274.274 0 0 1-.1.223l-1.091.779a.149.149 0 0 1-.182 0z" transform="translate(-95.558 -125.068)"/>
        <circle id="Ellipse_60" cx=".643" cy=".643" r=".643" transform="translate(24.71 25.649)"/>
        <circle id="Ellipse_61" cx=".643" cy=".643" r=".643" transform="translate(16.995 25.649)"/>
        <path id="Path_1302" d="M354.572 253.144a2.572 2.572 0 1 0-2.572-2.572 2.572 2.572 0 0 0 2.572 2.572zm0-3.858a1.286 1.286 0 1 1-1.286 1.286 1.286 1.286 0 0 1 1.286-1.286z" transform="translate(-316.352 -213.35)"/>
        <path id="Path_1303" d="M47.221 41.08h-3.858v-8.358a.639.639 0 0 0-.117-.368l-4.5-6.43a.643.643 0 0 0-1.053 0l-4.5 6.43a.64.64 0 0 0-.116.368v4.024a10.154 10.154 0 0 0-3.506-2.923 9.549 9.549 0 0 0 2.212-6.244 10.157 10.157 0 0 0-.472-3.092 4.5 4.5 0 1 0-6.118-6.01 12.879 12.879 0 0 0-7.4 0 4.5 4.5 0 1 0-6.118 6.01 10.157 10.157 0 0 0-.472 3.092 9.55 9.55 0 0 0 2.212 6.244 9.623 9.623 0 0 0-5.354 7.807v.024L8 42.535a.618.618 0 0 0 0 .087A3.866 3.866 0 0 0 10.57 46a6.322 6.322 0 0 0-.64 2.8c0 3.191 2.307 5.787 5.144 5.787a4.906 4.906 0 0 0 3.843-1.946 5.4 5.4 0 0 0 5.173 0 4.906 4.906 0 0 0 3.843 1.946 5.129 5.129 0 0 0 4.606-3.215h14.682a.643.643 0 0 0 .643-.643v-9a.643.643 0 0 0-.643-.643zm-9-13.667l3.266 4.665h-6.533zm-3.858 5.951h7.715v7.716h-7.227a10.467 10.467 0 0 0-.489-1.929zm-.717 8.391l.058.824a2.577 2.577 0 0 1-1.993 2.294 4.97 4.97 0 0 0-3.148-1.819 11.188 11.188 0 0 0-2.439-6.717 9.4 9.4 0 0 0 2.5-1.553 8.452 8.452 0 0 1 5.027 6.972zm-4.435-24.464a3.215 3.215 0 0 1 1.622 5.991 8.975 8.975 0 0 0-1.8-2.527 9.3 9.3 0 0 0-2.633-1.812 3.222 3.222 0 0 1 2.811-1.652zm-18.646 3.214a3.215 3.215 0 0 1 6.025-1.563 9.3 9.3 0 0 0-2.631 1.812 8.973 8.973 0 0 0-1.8 2.527 3.222 3.222 0 0 1-1.593-2.776zm1.929 7.072a8.179 8.179 0 0 1 2.366-5.906 9.213 9.213 0 0 1 6.64-2.451 9.213 9.213 0 0 1 6.635 2.452 8.179 8.179 0 0 1 2.365 5.906 8.179 8.179 0 0 1-2.366 5.906 9.212 9.212 0 0 1-6.634 2.452 9.212 9.212 0 0 1-6.635-2.452 8.179 8.179 0 0 1-2.366-5.906zm-3.206 15l.058-.824a8.453 8.453 0 0 1 5.027-6.972 9.4 9.4 0 0 0 2.507 1.558 11.234 11.234 0 0 0-2.436 6.712 4.972 4.972 0 0 0-3.15 1.822 2.577 2.577 0 0 1-2.006-2.294zM15.073 53.3c-2.127 0-3.858-2.019-3.858-4.5s1.731-4.5 3.858-4.5 3.858 2.019 3.858 4.5-1.731 4.5-3.858 4.5zm6.427-1.29a4.155 4.155 0 0 1-1.9-.469 6.328 6.328 0 0 0 .617-2.746 5.605 5.605 0 0 0-4.486-5.738A9.619 9.619 0 0 1 18.2 36.8a13.026 13.026 0 0 0 6.6 0 9.575 9.575 0 0 1 2.475 6.262 5.6 5.6 0 0 0-4.486 5.738 6.328 6.328 0 0 0 .617 2.746 4.155 4.155 0 0 1-1.906.464zm6.43 1.286c-2.127 0-3.858-2.019-3.858-4.5s1.731-4.5 3.858-4.5 3.858 2.019 3.858 4.5S30.06 53.3 27.932 53.3zm4.5-7.3a3.882 3.882 0 0 0 1.578-1.061H35v2.572h-2.054A6.2 6.2 0 0 0 32.434 46zm5.143 4.082h-4.63a6.467 6.467 0 0 0 .13-1.286h2.572a.643.643 0 0 0 .643-.643v-3.854a.643.643 0 0 0-.643-.643h-.871a3.827 3.827 0 0 0 .213-1.029.643.643 0 0 0 0-.087l-.012-.17h2.6zm9 0h-7.71v-7.712h7.715z"/>
        <path id="Path_1304" d="M408.643 365.144h3.857a.643.643 0 0 0 .575-.931l-1.929-3.858a.643.643 0 0 0-1.15 0l-1.929 3.858a.643.643 0 0 0 .575.931zm1.929-3.063l.889 1.777h-1.777z" transform="translate(-367.852 -316.349)"/>
    </g>
</svg>
