<svg xmlns="http://www.w3.org/2000/svg" width="41" height="41.166" viewBox="0 0 41 41.166">
    <defs>
        <style>
            .cls-2{fill:#35a872}.cls-4{fill:#d46109}.cls-5{fill:#eb423f}
        </style>
    </defs>
    <g id="_049-vegetables" transform="translate(-16 -15.999)">
        <path id="Path_1305" fill="#88c791" d="M130.929 248.4h-9.567L120 232h12.3z" transform="translate(-95.113 -197.55)"/>
        <g id="Group_36" transform="translate(46.219 41.008)">
            <path id="Path_1306" d="M2.05 0A2.05 2.05 0 0 1 4.1 2.05v4.783H0V2.05A2.05 2.05 0 0 1 2.05 0z" class="cls-2" transform="rotate(90 1.97 8.127)"/>
            <path id="Path_1307" d="M2.05 0A2.05 2.05 0 0 1 4.1 2.05v4.783H0V2.05A2.05 2.05 0 0 1 2.05 0z" class="cls-2" transform="rotate(135 1.255 8.286)"/>
            <path id="Path_1308" d="M0 0h4.1v4.783a2.05 2.05 0 1 1-4.1 0z" class="cls-2" transform="rotate(-135 3.05 3.265)"/>
        </g>
        <path id="Path_1309" fill="#f78a25" d="M88.276 351.741l-22.621-3.373a2.085 2.085 0 0 1 0-4.081l22.621-3.373a5.426 5.426 0 1 1 0 10.827z" transform="translate(-43.9 -297.112)"/>
        <path id="Path_1310" d="M49.111 33.323a6.079 6.079 0 0 0 .208-1.579 6.264 6.264 0 0 0-6.329-6.2 6.41 6.41 0 0 0-3 .74A6.369 6.369 0 0 0 35.077 24a6.263 6.263 0 0 0-6.329 6.2 6.065 6.065 0 0 0 .85 3.1h-.059a5.422 5.422 0 1 0 0 10.842 5.6 5.6 0 0 0 2.839-.766 6.37 6.37 0 0 0 12.049-1.012 5.578 5.578 0 0 0 4.1 1.778 5.417 5.417 0 0 0 .583-10.812z" class="cls-2" transform="translate(-7.317 -7.317)"/>
        <path id="Path_1311" d="M151.862 400.641l-1.359-.2.129-2.925a.683.683 0 0 1 1.366.06z" class="cls-4" transform="translate(-123.014 -348.328)"/>
        <path id="Path_1312" d="M104.668 378.621a.684.684 0 0 1-.67-.7l.048-2.3 1.371-.2-.052 2.529a.683.683 0 0 1-.697.671z" class="cls-4" transform="translate(-80.482 -328.723)"/>
        <circle id="Ellipse_62" cx="7" cy="7" r="7" class="cls-5" transform="translate(17 42)"/>
        <path id="Path_1313" d="M48.2 332.1l.683 2.733-3.417-1.367-3.417 1.367.683-2.733c-.682-1.367-2.732-1.367-2.732-1.367a6.835 6.835 0 0 1 10.933 0s-2.05 0-2.733 1.367z" class="cls-5" transform="translate(-21.95 -285.35)"/>
        <path id="Path_1314" d="M48.2 332.1l.683 2.733-3.417-1.367-3.417 1.367.683-2.733c-.682-1.367-2.732-1.367-2.732-1.367a6.835 6.835 0 0 1 10.933 0s-2.05 0-2.733 1.367z" class="cls-2" transform="translate(-21.95 -285.35)"/>
        <path id="Path_1315" d="M16 49.483a7.515 7.515 0 0 0 14.057 3.7L44.275 55.3a5.563 5.563 0 0 0 .821.061 5.405 5.405 0 0 0 2.717-.735l1.568 1.574a2.733 2.733 0 1 0 3.866-3.865l-.386-.385h1.406a2.733 2.733 0 0 0 0-5.467h-1.933l.649-.649a2.733 2.733 0 1 0-3.865-3.866l-1.648 1.647a5.407 5.407 0 0 0-3.195-.49L37.056 44.2l.647-7.765a6.318 6.318 0 0 0 3.508 1.065 6.095 6.095 0 0 0 1.4-12.055 6.784 6.784 0 0 0 .077-1.02 6.955 6.955 0 0 0-7.013-6.879 7.153 7.153 0 0 0-2.833.586A7.05 7.05 0 0 0 27.761 16a6.954 6.954 0 0 0-7.013 6.879 6.764 6.764 0 0 0 .477 2.493 6.1 6.1 0 0 0 1 12.131 6.331 6.331 0 0 0 2.2-.394l.415 4.974a7.529 7.529 0 0 0-1.317-.116h-.129a3.772 3.772 0 0 0-2.439-2.031.683.683 0 1 0-.331 1.326 2.265 2.265 0 0 1 1.274.881A7.529 7.529 0 0 0 16 49.483zm13.753-4.192a7.558 7.558 0 0 0-3.515-2.815l-.329-3.944a6.98 6.98 0 0 0 2.446 1.593l-.021.007.679 2.036v.011a.683.683 0 1 0 1.3-.432l-.408-1.223a7.245 7.245 0 0 0 1.018.072 7.122 7.122 0 0 0 1.247-.111l-.421 1.262a.683.683 0 1 0 1.3.432v-.011l.679-2.036a.682.682 0 0 0 .028-.121 6.93 6.93 0 0 0 2.419-1.736l-.511 6.134zm22.527 9.942a1.367 1.367 0 0 1-1.933 0L48.918 53.8a6.144 6.144 0 0 0 1.531-2.335L52.28 53.3a1.368 1.368 0 0 1 0 1.933zm1.987-7.385a1.367 1.367 0 1 1 0 2.733h-2.773l-.68-.68a6.539 6.539 0 0 0-.066-1.834l.219-.219zm-4.183-4.915a1.367 1.367 0 1 1 1.933 1.933L50.3 46.585a6.1 6.1 0 0 0-1.59-2.151l-.068-.056zm-6.067 1.613V48.8a.683.683 0 0 0 1.367 0v-4.358a4.173 4.173 0 0 1 2.432 1.027 5.04 5.04 0 0 1 0 7.492 4.122 4.122 0 0 1-3.339.992l-4.56-.68v-3.107a.683.683 0 1 0-1.367 0v2.9l-7.912-1.18a7.521 7.521 0 0 0-.193-5.32l2.638-.393v4.677a.683.683 0 0 0 1.367 0v-4.878zm-19.3-9.083a4.937 4.937 0 0 1-2.494.673 4.739 4.739 0 1 1 0-9.476h.054a.683.683 0 0 0 .6-1.031 5.408 5.408 0 0 1-.755-2.751 5.587 5.587 0 0 1 5.646-5.512 5.68 5.68 0 0 1 4.386 2.042.683.683 0 0 0 .845.167 5.763 5.763 0 0 1 2.682-.661 5.587 5.587 0 0 1 5.646 5.512 5.408 5.408 0 0 1-.185 1.4.683.683 0 0 0 .59.857 4.733 4.733 0 0 1-.513 9.449 4.921 4.921 0 0 1-3.6-1.559.683.683 0 0 0-1.168.317 5.687 5.687 0 0 1-10.751.9.683.683 0 0 0-.976-.328zm-2.2 7.954a7.607 7.607 0 0 1 .32 1.967.683.683 0 0 0 1.367 0 8.824 8.824 0 0 0-.286-2.036 6.125 6.125 0 0 1 3.716 1.568 3.138 3.138 0 0 0-1.991 1.529.683.683 0 0 0-.052.471l.359 1.437-2.176-.87a.684.684 0 0 0-.508 0l-2.175.87.359-1.437a.683.683 0 0 0-.052-.471 3.14 3.14 0 0 0-1.998-1.53 6.132 6.132 0 0 1 3.11-1.5zm-2.462 3.445l-.614 2.456a.683.683 0 0 0 .917.8l3.163-1.265 3.163 1.265a.683.683 0 0 0 .917-.8l-.614-2.456a1.974 1.974 0 0 1 1.049-.642 3.882 3.882 0 0 1 .613-.126 6.15 6.15 0 1 1-10.256 0 2.53 2.53 0 0 1 1.658.767z"/>
        <circle id="Ellipse_63" cx=".5" cy=".5" r=".5" transform="translate(44 51)"/>
        <path id="Path_1316" d="M280.543 377.348a.684.684 0 1 0-.537-.537.684.684 0 0 0 .537.537z" transform="translate(-241.444 -329.245)"/>
    </g>
</svg>
