<svg xmlns="http://www.w3.org/2000/svg" width="14.5" height="14.5" viewBox="0 0 14.5 14.5">
    <defs>
        <style>
            .cls-1{fill:#ffbb1a}
        </style>
    </defs>
    <g id="adresse" transform="translate(-.001)">
        <path id="Path_1340" d="M306.283 260a.283.283 0 1 0 .283.283.283.283 0 0 0-.283-.283zm0 0" class="cls-1" transform="translate(-297.333 -252.637)"/>
        <path id="Path_1341" d="M2.894 10.472L.062 14.041a.283.283 0 0 0 .222.459h13.933a.283.283 0 0 0 .222-.459l-2.832-3.568a.283.283 0 0 0-.222-.107H8.9l2.118-3.322a4.531 4.531 0 1 0-7.544 0L5.6 10.365H3.116a.283.283 0 0 0-.222.107zm-1.057 2.244h1.712l-.966 1.218H.87zm4.121-1.784l.776 1.218H4.722l.967-1.218zm2.586 0h.27l.966 1.218H7.767zm1.686 1.784l.966 1.218h-7.89l.967-1.218zm1.69 1.218l-.967-1.218h1.712l.966 1.218zm.3-1.784H10.5l-.967-1.218h1.712zM3.952 6.731a3.965 3.965 0 1 1 6.6 0l-3.3 5.169-3.3-5.169zm1.014 4.2L4 12.149H2.286l.967-1.218zm0 0" class="cls-1"/>
        <path id="Path_1342" d="M158.832 65.664A2.832 2.832 0 1 0 156 62.832a2.832 2.832 0 0 0 2.832 2.832zm0-5.1a2.266 2.266 0 1 1-2.266 2.266 2.268 2.268 0 0 1 2.266-2.264zm0 0" class="cls-1" transform="translate(-151.581 -58.301)"/>
        <path id="Path_1343" d="M247.472 292.728a.283.283 0 0 0-.389.1l-1.047 1.737a.283.283 0 1 0 .485.292l1.047-1.737a.283.283 0 0 0-.096-.392zm0 0" class="cls-1" transform="translate(-239.029 -284.399)"/>
    </g>
</svg>
