<svg xmlns="http://www.w3.org/2000/svg" width="16" height="16" viewBox="0 0 16 16">
    <g>
        <path fill="#ffbb1a" d="M14.737 10.535a9.133 9.133 0 0 1-2.871-.457 1.23 1.23 0 0 0-1.249.264L8.8 11.714A10.146 10.146 0 0 1 4.286 7.2L5.62 5.426a1.275 1.275 0 0 0 .312-1.288 9.158 9.158 0 0 1-.459-2.874A1.265 1.265 0 0 0 4.211 0H1.263A1.265 1.265 0 0 0 0 1.263 14.754 14.754 0 0 0 14.737 16 1.265 1.265 0 0 0 16 14.737V11.8a1.265 1.265 0 0 0-1.263-1.265zm.421 4.2a.422.422 0 0 1-.421.421A13.911 13.911 0 0 1 .842 1.263a.422.422 0 0 1 .421-.421h2.948a.422.422 0 0 1 .421.421A10 10 0 0 0 5.13 4.4a.466.466 0 0 1-.145.48L3.453 6.905a.421.421 0 0 0-.039.445 11.049 11.049 0 0 0 5.236 5.236.419.419 0 0 0 .445-.039l2.073-1.571a.422.422 0 0 1 .429-.1 9.991 9.991 0 0 0 3.139.5.422.422 0 0 1 .421.421v2.939z"/>
    </g>
</svg>
