<svg xmlns="http://www.w3.org/2000/svg" width="32.088" height="37.24" viewBox="0 0 32.088 37.24">
    <path fill="#ffbb1a" d="M36.022 4.018A4.026 4.026 0 0 0 32.093.007V0H7.922a3.992 3.992 0 0 0-3.988 3.988V37.24l12.442-8.294 12.443 8.294V16.371h7.2zm-8.513 30.776l-11.133-7.422-11.132 7.422V3.988A2.682 2.682 0 0 1 7.922 1.31h20.966A4.579 4.579 0 0 0 27.6 3.674c-.029.145-.052.293-.067.443a4.535 4.535 0 0 0-.024.464v30.21zm7.2-19.732h-5.89V4.584a3.264 3.264 0 0 1 2.506-3.174c.024-.006.045-.016.068-.021a3.211 3.211 0 0 1 .493-.058c.054 0 .106-.016.161-.016a2.714 2.714 0 0 1 2.665 2.7v11.047z" transform="translate(-3.934)"/>
</svg>
