<svg xmlns="http://www.w3.org/2000/svg" width="21.46" height="24.052" viewBox="0 0 21.46 24.052">
    <path fill="#090702" d="M25.394 2.6A2.646 2.646 0 0 0 22.766 0H6.6a2.625 2.625 0 0 0-2.666 2.576v21.476l8.321-5.357 8.321 5.357V10.573h4.818zM19.7 22.471l-7.445-4.794-7.445 4.794V2.576A1.763 1.763 0 0 1 6.6.846h14.023a2.93 2.93 0 0 0-.861 1.527 2.887 2.887 0 0 0-.061.586v19.512zm4.818-12.743h-3.942V2.961a2.04 2.04 0 0 1 .044-.42 2.165 2.165 0 0 1 1.633-1.63c.016 0 .03-.011.046-.014a2.22 2.22 0 0 1 .33-.038c.036 0 .071-.01.108-.011A1.784 1.784 0 0 1 24.518 2.6v7.128z" transform="translate(-3.934)"/>
</svg>
