<svg xmlns="http://www.w3.org/2000/svg" width="32" height="32" viewBox="0 0 32 32">
    <path fill="#ffbb1a" d="M31.64 13.918L18.583.862a2.946 2.946 0 0 0-4.167 0L1.369 13.909l-.013.013a2.945 2.945 0 0 0 1.96 5.019h.611v9.606A3.452 3.452 0 0 0 7.375 32h5.107a.938.938 0 0 0 .938-.937v-7.532a1.575 1.575 0 0 1 1.573-1.573h3.013a1.575 1.575 0 0 1 1.573 1.573v7.531a.938.938 0 0 0 .938.938h5.107a3.452 3.452 0 0 0 3.448-3.448v-9.606h.482a2.946 2.946 0 0 0 2.085-5.028zm-1.328 2.839a1.065 1.065 0 0 1-.757.314h-1.42a.937.937 0 0 0-.938.938v10.543a1.575 1.575 0 0 1-1.573 1.573h-4.17v-6.594a3.452 3.452 0 0 0-3.448-3.448h-3.012a3.452 3.452 0 0 0-3.449 3.448v6.594h-4.17A1.575 1.575 0 0 1 5.8 28.552V18.008a.937.937 0 0 0-.938-.937H3.418a1.07 1.07 0 0 1-.738-1.827L15.743 2.188a1.071 1.071 0 0 1 1.514 0l13.051 13.05.006.006a1.073 1.073 0 0 1 0 1.513zm0 0" transform="translate(-.5 .001)"/>
</svg>
