<svg xmlns="http://www.w3.org/2000/svg" width="32.187" height="29.505" viewBox="0 0 32.187 29.505">
    <defs>
        <style>
            .cls-1{fill:#ffbb1a}
        </style>
    </defs>
    <g id="image-gallery_1_" transform="translate(0 -2)">
        <g id="Group_150" transform="translate(0 12.328)">
            <path id="Path_1381" d="M23.407 28.878a2.675 2.675 0 0 1-.684-.089L1.985 23.236a2.707 2.707 0 0 1-1.9-3.286L2.7 10.2a.67.67 0 0 1 1.3.346l-2.615 9.75a1.361 1.361 0 0 0 .952 1.648l20.73 5.551a1.335 1.335 0 0 0 1.632-.944l1.047-3.881a.671.671 0 0 1 1.3.349L26 26.892a2.679 2.679 0 0 1-2.59 1.986z" class="cls-1" transform="translate(0 -9.701)"/>
        </g>
        <g id="Group_151" transform="translate(5.364 2)">
            <path id="Path_1382" d="M28.14 23.458H6.682A2.685 2.685 0 0 1 4 20.776V4.682A2.685 2.685 0 0 1 6.682 2H28.14a2.685 2.685 0 0 1 2.682 2.682v16.094a2.685 2.685 0 0 1-2.682 2.682zM6.682 3.341a1.343 1.343 0 0 0-1.341 1.341v16.094a1.343 1.343 0 0 0 1.341 1.341H28.14a1.343 1.343 0 0 0 1.341-1.341V4.682a1.343 1.343 0 0 0-1.341-1.341z" class="cls-1" transform="translate(-4 -2)"/>
        </g>
        <g id="Group_152" transform="translate(9.388 6.023)">
            <path id="Path_1383" d="M9.682 10.365a2.682 2.682 0 1 1 2.682-2.682 2.685 2.685 0 0 1-2.682 2.682zm0-4.023a1.341 1.341 0 1 0 1.341 1.341 1.343 1.343 0 0 0-1.341-1.342z" class="cls-1" transform="translate(-7 -5)"/>
        </g>
        <g id="Group_153" transform="translate(5.458 9.443)">
            <path id="Path_1384" d="M4.741 20.13a.67.67 0 0 1-.475-1.144l6.334-6.334a2.061 2.061 0 0 1 2.845 0l1.886 1.886 5.22-6.263a2.015 2.015 0 0 1 1.532-.724h.017a2.01 2.01 0 0 1 1.528.7l7.014 8.184a.671.671 0 0 1-1.018.873l-7.018-8.184a.663.663 0 0 0-.51-.233.712.712 0 0 0-.515.241l-5.69 6.828a.668.668 0 0 1-.485.24.646.646 0 0 1-.5-.2l-2.4-2.4a.689.689 0 0 0-.948 0l-6.344 6.334a.668.668 0 0 1-.473.2z" class="cls-1" transform="translate(-4.07 -7.55)"/>
        </g>
    </g>
</svg>
