<svg xmlns="http://www.w3.org/2000/svg" id="instagram" width="14.922" height="14.922" viewBox="0 0 14.922 14.922">
    <defs>
        <style>
            .cls-1{fill:#ffbb1a}
        </style>
    </defs>
    <path id="Path_1067" d="M10.588 0H4.335A4.34 4.34 0 0 0 0 4.335v6.253a4.34 4.34 0 0 0 4.335 4.335h6.253a4.34 4.34 0 0 0 4.335-4.335V4.335A4.34 4.34 0 0 0 10.588 0zm3.169 10.587a3.172 3.172 0 0 1-3.169 3.169H4.335a3.172 3.172 0 0 1-3.169-3.169V4.335a3.172 3.172 0 0 1 3.169-3.169h6.253a3.172 3.172 0 0 1 3.169 3.169z" class="cls-1"/>
    <path id="Path_1068" d="M122.022 118a4.022 4.022 0 1 0 4.022 4.022 4.027 4.027 0 0 0-4.022-4.022zm0 6.878a2.856 2.856 0 1 1 2.856-2.856 2.859 2.859 0 0 1-2.856 2.856z" class="cls-1" transform="translate(-114.561 -114.561)"/>
    <circle id="Ellipse_21" cx=".602" cy=".602" r=".602" class="cls-1" transform="translate(10.908 2.746)"/>
</svg>
