<svg xmlns="http://www.w3.org/2000/svg" width="32.036" height="40.045" viewBox="0 0 32.036 40.045">
    <defs>
        <style>
            .cls-1{fill:#ffbb1a}
        </style>
    </defs>
    <g id="medal">
        <path id="Path_1330" d="M2.226 19.713a3.726 3.726 0 0 0-.663 2.165 4.3 4.3 0 0 0 .583 2.149 4.033 4.033 0 0 0 3.768 2.093c-.009.1-.013.206-.013.31a3.614 3.614 0 0 0 .168 1.082l-4.643 5.974a1.335 1.335 0 0 0 1.4 2.1L6.908 34.5a.671.671 0 0 1 .822.474l1.1 4.087a1.318 1.318 0 0 0 1.2.982h.095a1.328 1.328 0 0 0 1.236-.828l3.039-7.494a4.322 4.322 0 0 0 3.062.062l3.025 7.434a1.316 1.316 0 0 0 1.236.828h.088a1.319 1.319 0 0 0 1.213-.988l1.1-4.088a.668.668 0 0 1 .816-.473l4.083 1.094a1.335 1.335 0 0 0 1.4-2.108l-4.513-5.8a3.613 3.613 0 0 0 .227-1.255c0-.1 0-.207-.013-.31a4.037 4.037 0 0 0 3.767-2.093 4.3 4.3 0 0 0 .584-2.15 3.729 3.729 0 0 0-.664-2.165 4.181 4.181 0 0 0 0-7.39 4.06 4.06 0 0 0 .079-4.313 4.052 4.052 0 0 0-3.769-2.093 4.04 4.04 0 0 0-2.093-3.77 4.133 4.133 0 0 0-4.315.079 4.18 4.18 0 0 0-7.39 0 4.132 4.132 0 0 0-4.313-.08 4.039 4.039 0 0 0-2.093 3.772 4.048 4.048 0 0 0-3.772 2.095 4.059 4.059 0 0 0 .08 4.313 4.18 4.18 0 0 0 0 7.389zm7.89 19l-1.093-4.08a2.008 2.008 0 0 0-2.454-1.423L2.484 34.3l4.279-5.5a4.41 4.41 0 0 0 1.247 1.1 4.056 4.056 0 0 0 4.309-.078 3.61 3.61 0 0 0 .926 1.221zm19.251-4.4l-4.089-1.1a2 2 0 0 0-2.452 1.417l-1.1 4.084-3.08-7.559a3.628 3.628 0 0 0 1.068-1.335 4.061 4.061 0 0 0 4.315.075 4.471 4.471 0 0 0 1.154-.963l4.193 5.368zM3.582 13.348a.667.667 0 0 0 .327-1.243A2.5 2.5 0 0 1 3.3 8.679a2.75 2.75 0 0 1 2.307-1.444 1.885 1.885 0 0 1 .965.25.667.667 0 0 0 .916-.906A2.5 2.5 0 0 1 8.677 3.3a2.958 2.958 0 0 1 1.482-.4 2.219 2.219 0 0 1 1.95 1.016.667.667 0 0 0 1.24-.33 2.515 2.515 0 0 1 2.676-2.247 2.511 2.511 0 0 1 2.663 2.247.667.667 0 0 0 1.24.334 2.218 2.218 0 0 1 1.951-1.02 2.962 2.962 0 0 1 1.482.4 2.5 2.5 0 0 1 1.188 3.277.668.668 0 0 0 .917.906 1.884 1.884 0 0 1 .965-.25 2.747 2.747 0 0 1 2.3 1.441 2.507 2.507 0 0 1-.606 3.431.667.667 0 0 0 .327 1.241 2.516 2.516 0 0 1 2.248 2.679 2.511 2.511 0 0 1-2.247 2.663.667.667 0 0 0-.334 1.241 2.216 2.216 0 0 1 1.019 1.949 2.962 2.962 0 0 1-.4 1.482 2.493 2.493 0 0 1-3.276 1.188.667.667 0 0 0-.907.916 1.891 1.891 0 0 1 .25.966 2.385 2.385 0 0 1-.258 1.06 2.963 2.963 0 0 1-1.183 1.244 2.507 2.507 0 0 1-3.431-.607.667.667 0 0 0-1.241.325 2.228 2.228 0 0 1-1.192 1.869 3.1 3.1 0 0 1-3.081-.077 2.192 2.192 0 0 1-1.067-1.788.667.667 0 0 0-1.243-.329 2.5 2.5 0 0 1-3.428.609 2.972 2.972 0 0 1-1.243-1.372 2.355 2.355 0 0 1-.2-.934 1.894 1.894 0 0 1 .25-.966.667.667 0 0 0-.907-.916A2.5 2.5 0 0 1 3.3 23.359a2.962 2.962 0 0 1-.4-1.481 2.216 2.216 0 0 1 1.016-1.949.667.667 0 0 0-.334-1.241 2.516 2.516 0 0 1-2.242-2.676 2.512 2.512 0 0 1 2.246-2.663zm0 0" class="cls-1"/>
        <path id="Path_1331" d="M78.957 89.627a10.679 10.679 0 1 0-10.679-10.679 10.678 10.678 0 0 0 10.679 10.679zm0-20.022a9.344 9.344 0 1 1-9.344 9.344 9.343 9.343 0 0 1 9.344-9.349zm0 0" class="cls-1" transform="translate(-62.938 -62.93)"/>
        <path id="Path_1332" d="M196.277 204.279a.667.667 0 0 0 .668.668 8.017 8.017 0 0 0 8.009-8.009.667.667 0 0 0-1.335 0 6.682 6.682 0 0 1-6.674 6.674.667.667 0 0 0-.668.667zm0 0" class="cls-1" transform="translate(-180.925 -180.919)"/>
        <path id="Path_1333" d="M110.42 103.737a.667.667 0 0 0 0-1.335 8.018 8.018 0 0 0-8.009 8.009.668.668 0 0 0 1.335 0 6.681 6.681 0 0 1 6.674-6.674zm0 0" class="cls-1" transform="translate(-94.401 -94.393)"/>
        <path id="Path_1334" d="M166.212 137.264a.516.516 0 0 0-.015-.075.551.551 0 0 0-.085-.256.539.539 0 0 0-.033-.067c-.009-.013-.024-.019-.034-.031a.678.678 0 0 0-.1-.091.726.726 0 0 0-.353-.133c-.015 0-.029-.009-.044-.009a.65.65 0 0 0-.073.015.638.638 0 0 0-.134.027.661.661 0 0 0-.122.059.584.584 0 0 0-.067.033l-2.67 2a.667.667 0 1 0 .8 1.068l1.6-1.206v7.341h-1.335a.668.668 0 0 0 0 1.335h4a.668.668 0 0 0 0-1.335h-1.335zm0 0" class="cls-1" transform="translate(-149.526 -125.917)"/>
    </g>
</svg>
