<svg xmlns="http://www.w3.org/2000/svg" width="32.305" height="30.152" viewBox="0 0 32.305 30.152">
    <defs>
        <style>
            .cls-1{fill:#ffbb1a}
        </style>
    </defs>
    <g id="moped" transform="translate(0 -.498)">
        <path id="Path_1324" d="M402.682 387.73a1.615 1.615 0 1 0-1.615-1.615 1.615 1.615 0 0 0 1.615 1.615zm0-2.154a.538.538 0 1 1-.539.538.538.538 0 0 1 .539-.537zm0 0" class="cls-1" transform="translate(-375.76 -359.773)"/>
        <path id="Path_1325" d="M129.616 384.5a1.615 1.615 0 1 0 1.615 1.615 1.615 1.615 0 0 0-1.615-1.615zm0 2.154a.538.538 0 1 1 .538-.539.538.538 0 0 1-.538.539zm0 0" class="cls-1" transform="translate(-119.923 -359.773)"/>
        <path id="Path_1326" d="M.539 13.958h2.342l1.693 3.808a1.077 1.077 0 0 0-.8 1.038v1.077a1.077 1.077 0 0 0 .965 1.065 5.316 5.316 0 0 0-.416 1.5 1.077 1.077 0 0 0 1.062 1.204h.947a4.291 4.291 0 0 0 .51 5.915H5.385a.538.538 0 0 0 0 1.077h4.146c.054 0 .108.008.162.008A4.312 4.312 0 0 0 14 26.342v-.035a2.407 2.407 0 0 0 .347.035h7.841a2.112 2.112 0 0 0 .431-.048v.048a4.294 4.294 0 0 0 1.459 3.223h-1.464a.538.538 0 0 0 0 1.077h4.146c.054 0 .108.008.162.008a4.3 4.3 0 0 0 3.728-6.461h.579a1.077 1.077 0 0 0 1.071-1.205 5.4 5.4 0 0 0-4.982-4.7l-2.541-7.624a2.417 2.417 0 0 0-.007-4.714v-.064a.539.539 0 0 0-.539-.538h-2.155a2.912 2.912 0 0 0-.785.11l-.8-1.784c.008-.009.018-.015.026-.023a1.893 1.893 0 0 0 .477-1.454A1.943 1.943 0 0 0 19.038.5h-.731a1.077 1.077 0 0 0-1.077 1.075V3.19a1.077 1.077 0 0 0 1.077 1.077h.808a1.875 1.875 0 0 0 .435-.054l.776 1.723a2.983 2.983 0 0 0-1.194 2.389 2.928 2.928 0 0 0 .079.664l-1.655.711a.538.538 0 1 0 .424.99l1.659-.713a2.944 2.944 0 0 0 2 1.257c1.849 7.7.131 11.113-.075 11.48a.791.791 0 0 1-.693.4h-2.564a.778.778 0 0 1-.689-.308c-.566-.76-.3-2.77.039-4.064a1.612 1.612 0 0 0-.428-3.166h-7.77l-.969-1.615h2.818a.538.538 0 1 0 0-1.077h-.638a1.607 1.607 0 0 0 .1-.538V5.882a1.615 1.615 0 0 0-1.616-1.615H2.693a1.615 1.615 0 0 0-1.616 1.615v6.461a1.6 1.6 0 0 0 .1.538H.539a.538.538 0 1 0 0 1.077zM18.307 3.19V1.575h.731a.858.858 0 0 1 .88.722.807.807 0 0 1-.8.893zM5.364 19.881h-.518V18.8h1.6a5.431 5.431 0 0 0-1.082 1.077zM9.692 18.8a4.3 4.3 0 0 1 4.27 3.769H5.384A4.328 4.328 0 0 1 9.692 18.8zm3.231 7.538a3.233 3.233 0 0 1-3.2 3.231c-.011 0-.021-.007-.032-.007h-.16a3.223 3.223 0 0 1-1.616-5.912h3.93v.2a2.481 2.481 0 0 0 1.037 2.01 3.257 3.257 0 0 1 .04.48zm17.23 0a3.233 3.233 0 0 1-3.2 3.231c-.011 0-.021-.007-.032-.007h-.161a3.2 3.2 0 0 1-2.987-3.924 2.173 2.173 0 0 0 .312-.434l.549-1.019h4.691a3.2 3.2 0 0 1 .828 2.154zm1.077-3.231h-6.016l2.022-3.755a4.323 4.323 0 0 1 3.994 3.755zM25.576 8.305a1.347 1.347 0 0 1-.807 1.232V7.073a1.347 1.347 0 0 1 .807 1.232zm-4.91 1.228l1.083-.464a.538.538 0 1 0-.424-.99l-1.094.469a1.841 1.841 0 0 1-.023-.227 1.884 1.884 0 0 1 1.868-1.9h1.615v3.769h-1.615a1.855 1.855 0 0 1-1.41-.656zm-2.359 14.656h2.565a1.869 1.869 0 0 0 1.635-.952c.366-.654 2.054-4.236.256-11.97h1.081l2.5 7.488-3.2 5.944a1.076 1.076 0 0 1-.95.567h-7.849a1.419 1.419 0 0 1-1.422-1.413v-.2h1.039a1.08 1.08 0 0 0 1.073-1.211 5.367 5.367 0 0 0-2.118-3.642h3.613c-.274 1.173-.651 3.468.222 4.642a1.856 1.856 0 0 0 1.555.742zm-.538-7a.538.538 0 0 1-.539.539H8.615v-.539a.538.538 0 0 1 .538-.538h8.077a.538.538 0 0 1 .539.538zM8.34 15.8a1.61 1.61 0 0 0-.8 1.387v.539h-1.8l-1.68-3.768h3.176zM2.693 5.344h6.461a.538.538 0 0 1 .539.538v.539H2.154v-.539a.538.538 0 0 1 .539-.538zm-.539 7V7.5h7.538v4.846a.538.538 0 0 1-.539.538h-6.46a.538.538 0 0 1-.539-.538zm0 0" class="cls-1"/>
        <path id="Path_1327" d="M34.671 461.3a.538.538 0 1 0 0 1.077h.538a.538.538 0 1 0 0-1.077zm0 0" class="cls-1" transform="translate(-31.979 -431.728)"/>
        <path id="Path_1328" d="M307.737 461.3a.538.538 0 1 0 0 1.077h.538a.538.538 0 1 0 0-1.077zm0 0" class="cls-1" transform="translate(-287.815 -431.728)"/>
    </g>
</svg>
