<svg xmlns="http://www.w3.org/2000/svg" width="32.339" height="32.339" viewBox="0 0 32.339 32.339">
    <defs>
        <style>
            .cls-1{fill:#ffbb1a}
        </style>
    </defs>
    <g id="online-shop" transform="translate(.002 -.5)">
        <path id="Path_1335" d="M32.338 16.669a16.065 16.065 0 0 0-1.7-7.205c0-.012-.012-.022-.018-.034a16.159 16.159 0 0 0-28.9 0c-.006.012-.013.022-.018.034a16.119 16.119 0 0 0 0 14.41c0 .012.012.022.017.034a16.159 16.159 0 0 0 28.9 0c.006-.012.013-.022.018-.034a16.065 16.065 0 0 0 1.7-7.205zm-10.3 7.546H24.1c-1.5 4.265-4.233 7.214-7.391 7.518v-7.658a.539.539 0 1 0-1.078 0v7.658c-3.158-.3-5.889-3.253-7.391-7.518h3.138a.539.539 0 1 0 0-1.078H7.891a23.223 23.223 0 0 1-.878-5.929H9.6a.539.539 0 1 0 0-1.078H7.013a23.221 23.221 0 0 1 .878-5.93h.192a.539.539 0 0 0 .539-.539.531.531 0 0 0-.395-.51c1.5-4.281 4.237-7.243 7.4-7.546v8.057a.539.539 0 1 0 1.078 0V1.606c3.158.3 5.89 3.253 7.391 7.518h-2a.539.539 0 1 0 0 1.078h2.348a23.221 23.221 0 0 1 .878 5.929h-2.967a.539.539 0 0 0 0 1.078h2.967a23.223 23.223 0 0 1-.878 5.929h-2.407a.539.539 0 0 0 0 1.078zM1.09 17.208h4.846a24.152 24.152 0 0 0 .849 5.929H2.536a14.988 14.988 0 0 1-1.446-5.929zM2.536 10.2h4.249a24.152 24.152 0 0 0-.849 5.929H1.09A14.987 14.987 0 0 1 2.536 10.2zm28.71 5.929H26.4a24.14 24.14 0 0 0-.849-5.929H29.8a14.991 14.991 0 0 1 1.446 5.929zM26.4 17.208h4.846a14.992 14.992 0 0 1-1.446 5.929h-4.249a24.14 24.14 0 0 0 .849-5.929zm2.829-8.085h-4.006a14.925 14.925 0 0 0-4.312-6.778 15.16 15.16 0 0 1 8.318 6.778zm-17.8-6.778a14.925 14.925 0 0 0-4.316 6.778H3.107a15.161 15.161 0 0 1 8.318-6.778zm-8.322 21.87h4.006a14.9 14.9 0 0 0 4.312 6.778 15.161 15.161 0 0 1-8.318-6.778zm17.8 6.778a14.923 14.923 0 0 0 4.312-6.778h4.008a15.161 15.161 0 0 1-8.32 6.778zm0 0" class="cls-1"/>
        <path id="Path_1336" d="M165.459 147.272a.539.539 0 0 0-.539-.539h-8.085a.549.549 0 0 1-.539-.572l-.03-.5h7.576a.539.539 0 0 0 .516-.384l1.617-5.39a.539.539 0 0 0-.516-.694h-9.6l-.1-1.65a.539.539 0 0 0-.539-.506h-1.08a.539.539 0 0 0 0 1.078h.572l.1 1.65.34 5.4.064 1.039a1.617 1.617 0 0 0 .933 1.46 2.16 2.16 0 1 0 3.618.157h1.677a2.133 2.133 0 0 0-.3 1.078 2.156 2.156 0 1 0 4.312 0 2.133 2.133 0 0 0-.323-1.123.539.539 0 0 0 .323-.494zm-.724-7.007l-.323 1.078h-5.42a.539.539 0 1 0 0 1.078h5.1l-.647 2.156H156.2l-.27-4.312zm-5.743 8.624a1.078 1.078 0 1 1-1.078-1.078 1.078 1.078 0 0 1 1.077 1.078zm4.312 1.078a1.078 1.078 0 1 1 1.078-1.078 1.078 1.078 0 0 1-1.082 1.078zm0 0" class="cls-1" transform="translate(-143.901 -127.908)"/>
    </g>
</svg>
