<svg xmlns="http://www.w3.org/2000/svg" width="32.312" height="31.447" viewBox="0 0 32.312 31.447">
    <defs>
        <style>
            .cls-1{fill:#ffbb1a}
        </style>
    </defs>
    <g id="shopping-cart" transform="translate(0 -6.028)">
        <g id="Group_27" transform="translate(0 6.028)">
            <g id="Group_26">
                <path id="Path_23" d="M100.026 350.322a3.373 3.373 0 1 0 3.374 3.378 3.373 3.373 0 0 0-3.374-3.378zm0 5.247a1.874 1.874 0 1 1 1.874-1.869 1.874 1.874 0 0 1-1.874 1.869z" class="cls-1" transform="translate(-89.719 -325.621)"/>
                <path id="Path_24" d="M298.557 350.322a3.373 3.373 0 1 0 3.373 3.373 3.373 3.373 0 0 0-3.373-3.373zm0 5.247a1.874 1.874 0 1 1 1.874-1.874 1.874 1.874 0 0 1-1.874 1.874z" class="cls-1" transform="translate(-274.007 -325.621)"/>
                <path id="Path_25" d="M32.159 11.051a.937.937 0 0 0-.6-.3l-24.4-.337-.675-2.062a3.448 3.448 0 0 0-3.223-2.324H.75a.75.75 0 0 0 0 1.5h2.511a1.949 1.949 0 0 1 1.8 1.312L9.82 23.195l-.375.862a3.6 3.6 0 0 0 .337 3.261 3.486 3.486 0 0 0 2.811 1.574h14.58a.75.75 0 0 0 0-1.5H12.594a1.912 1.912 0 0 1-1.574-.9 2.061 2.061 0 0 1-.187-1.8l.3-.675 15.78-1.649a4.123 4.123 0 0 0 3.561-3.148l1.8-7.534a.637.637 0 0 0-.115-.635zm-3.148 7.834a2.549 2.549 0 0 1-2.286 1.987l-15.593 1.611-3.486-10.57 22.976.337z" class="cls-1" transform="translate(0 -6.028)"/>
            </g>
        </g>
    </g>
</svg>
