<svg xmlns="http://www.w3.org/2000/svg" id="shop" width="20.737" height="18.105" viewBox="0 0 20.737 18.105">
    <defs>
        <style>
            .cls-1{fill:#ffbb1a}
        </style>
    </defs>
    <g id="Group_104">
        <path id="Path_1353" d="M252.416 263.75H249.6a1.4 1.4 0 0 0-1.4 1.4v2.161a1.4 1.4 0 0 0 1.4 1.4h2.818a1.4 1.4 0 0 0 1.4-1.4v-2.161a1.4 1.4 0 0 0-1.402-1.4zm.381 3.559a.382.382 0 0 1-.381.381H249.6a.382.382 0 0 1-.381-.381v-2.161a.382.382 0 0 1 .381-.381h2.818a.382.382 0 0 1 .381.381z" class="cls-1" transform="translate(-237.683 -253.89)"/>
        <path id="Path_1354" d="M20.737 36.982a.472.472 0 0 0-.068-.25l-3.085-5.424a.511.511 0 0 0-.441-.258H3.589a.5.5 0 0 0-.441.258l-3.08 5.424a.514.514 0 0 0-.068.25A2.974 2.974 0 0 0 1.78 39.7v8.945a.51.51 0 0 0 .508.508h16.156a.51.51 0 0 0 .508-.508v-8.879a.224.224 0 0 0 0-.055 2.983 2.983 0 0 0 1.785-2.729zM3.885 32.071h12.962l2.411 4.241H1.479zm10.873 5.254a1.954 1.954 0 0 1-3.847 0zm-4.928 0a1.957 1.957 0 0 1-3.852 0zm-8.779 0H4.9a1.957 1.957 0 0 1-3.852 0zm7.491 10.813H5.618v-5.487a.724.724 0 0 1 .725-.725h1.479a.724.724 0 0 1 .725.725v5.487zm9.394 0H9.559v-5.487a1.744 1.744 0 0 0-1.741-1.741H6.339A1.744 1.744 0 0 0 4.6 42.651v5.491H2.8v-8.19h.178a2.971 2.971 0 0 0 2.462-1.309 2.972 2.972 0 0 0 4.932 0 2.964 2.964 0 0 0 4.924 0 2.971 2.971 0 0 0 2.466 1.314h.174v8.186zm-.174-9.2a1.953 1.953 0 0 1-1.924-1.61h3.852a1.965 1.965 0 0 1-1.928 1.612z" class="cls-1" transform="translate(0 -31.05)"/>
    </g>
</svg>
