<svg xmlns="http://www.w3.org/2000/svg" width="32.293" height="32.293" viewBox="0 0 32.293 32.293">
    <g>
        <path fill="#ffbb1a" d="M29.6 2.153h-8.344A6.6 6.6 0 0 0 16.4 0h-.517a6.6 6.6 0 0 0-4.851 2.153H2.691A2.65 2.65 0 0 0 0 4.752v20.635a2.65 2.65 0 0 0 2.691 2.6H11.3v1.076H9.15A2.155 2.155 0 0 0 7 31.216v.538a.538.538 0 0 0 .538.538h17.22a.538.538 0 0 0 .538-.538v-.538a2.155 2.155 0 0 0-2.153-2.153H20.99v-1.076h8.61a2.65 2.65 0 0 0 2.691-2.6V4.752A2.65 2.65 0 0 0 29.6 2.153zM15.888 1.076h.512a5.773 5.773 0 0 1 5.636 5.382H20.99v-.106a3.827 3.827 0 0 0-.89-2.767 5.028 5.028 0 0 0-3.956-1.432 5.028 5.028 0 0 0-3.956 1.432 3.827 3.827 0 0 0-.888 2.767v.107h-1.05a5.773 5.773 0 0 1 5.638-5.383zm6.179 6.459v2.691H20.99V7.535zM19.4 18.1l3.375 1.936a2.739 2.739 0 0 1 1.443 2.42v1.227H8.073v-1.309A2.707 2.707 0 0 1 9.435 20l3.489-1.964a2.009 2.009 0 0 0 1.021-1.762v-.93a.94.94 0 0 0-.184-.562 9.285 9.285 0 0 1-.514-.788h.774a1.348 1.348 0 0 0 1.318 1.076h1.076a1.347 1.347 0 0 0 1.346-1.346v-.538a1.347 1.347 0 0 0-1.346-1.346h-1.076a1.348 1.348 0 0 0-1.318 1.076h-1.314a6.53 6.53 0 0 1-.328-1V6.324a.528.528 0 0 0 0-.068A2.773 2.773 0 0 1 13 4.3a4.031 4.031 0 0 1 3.148-1.067 4.042 4.042 0 0 1 3.139 1.058 2.77 2.77 0 0 1 .633 1.969.538.538 0 0 0 0 .068v5.591a8.522 8.522 0 0 1-1.383 2.868.939.939 0 0 0-.183.561v.971A2 2 0 0 0 19.4 18.1zm-4.33-4.376v-.538a.269.269 0 0 1 .269-.269h1.076a.269.269 0 0 1 .269.269v.538a.269.269 0 0 1-.269.269h-1.076a.269.269 0 0 1-.269-.269zm-4.844-6.189H11.3v2.691h-1.074zm0 4.575v-.81H11.3v.673a.535.535 0 0 0 .013.117 7.04 7.04 0 0 0 .245.825h-.627a.763.763 0 0 1-.705-.805zm-9.15-7.358a1.573 1.573 0 0 1 1.615-1.523h7.528A7.142 7.142 0 0 0 9.15 7v5.11a1.838 1.838 0 0 0 1.783 1.884h1.091a10.693 10.693 0 0 0 .845 1.391v.889a.934.934 0 0 1-.47.823l-3.49 1.965A3.784 3.784 0 0 0 7 22.374v1.308H1.076zM23.143 30.14a1.078 1.078 0 0 1 1.076 1.076H8.073A1.078 1.078 0 0 1 9.15 30.14zm-10.764-1.077v-1.076h7.535v1.076zm18.837-3.676a1.573 1.573 0 0 1-1.616 1.524H2.691a1.573 1.573 0 0 1-1.615-1.523v-.63h30.14v.63zm0-1.706H25.3v-1.227a3.764 3.764 0 0 0-2-3.365l-3.374-1.936a.934.934 0 0 1-.493-.838v-.93a9.574 9.574 0 0 0 1.553-3.292.531.531 0 0 0 .013-.117V11.3h1.076a1.078 1.078 0 0 0 1.076-1.076V7a7.142 7.142 0 0 0-1.069-3.767H29.6a1.573 1.573 0 0 1 1.615 1.523z"/>
    </g>
</svg>
