<svg xmlns="http://www.w3.org/2000/svg" id="to-do-list" width="31.796" height="35.546" viewBox="0 0 31.796 35.546">
    <defs>
        <style>
            .cls-1{fill:#ffbb1a}
        </style>
    </defs>
    <path id="Path_14" d="M27.77 0H4.027A4.031 4.031 0 0 0 0 4.027v25.687A2.085 2.085 0 0 0 2.083 31.8H11.2a.694.694 0 0 0 0-1.389H2.083a.7.7 0 0 1-.694-.694V4.027a2.641 2.641 0 0 1 2.638-2.638h20.7a4.009 4.009 0 0 0-.988 2.638V26.4a1.162 1.162 0 0 1-2.264.367l-1.046-3.139a2.167 2.167 0 0 0-4.222.685v.541h-3.6a.694.694 0 1 0 0 1.389h3.6V29.7a7.682 7.682 0 0 0 .594 2.971l1.021 2.451a.694.694 0 1 0 1.282-.534l-1.021-2.451A6.3 6.3 0 0 1 17.6 29.7v-5.387a.778.778 0 0 1 1.517-.246l1.046 3.139a2.55 2.55 0 0 0 4.969-.807V14.5l.928.926a8.685 8.685 0 0 1 2.567 6.189v7.38a13.064 13.064 0 0 1-1.252 5.562.694.694 0 1 0 1.255.595 14.461 14.461 0 0 0 1.386-6.157v-7.38a10.065 10.065 0 0 0-2.976-7.175l-1.909-1.905v-.663h4.582A2.085 2.085 0 0 0 31.8 9.789V4.027A4.031 4.031 0 0 0 27.77 0zm2.638 9.789a.7.7 0 0 1-.694.694h-4.582V4.027a2.638 2.638 0 0 1 5.276 0zm0 0" class="cls-1"/>
    <path id="Path_15" d="M195.694 438a.694.694 0 1 0 .491.2.7.7 0 0 0-.491-.2zm0 0" class="cls-1" transform="translate(-181.462 -407.588)"/>
    <path id="Path_16" d="M59.5 55.389A1.39 1.39 0 0 0 58.111 54h-3.054a1.39 1.39 0 0 0-1.389 1.389v3.055a1.39 1.39 0 0 0 1.389 1.389h3.055a1.39 1.39 0 0 0 1.388-1.39zm-1.388 3.055h-3.055v-3.055h3.055v3.055zm0 0" class="cls-1" transform="translate(-49.942 -50.251)"/>
    <path id="Path_17" d="M59.5 175.389A1.39 1.39 0 0 0 58.111 174h-3.054a1.39 1.39 0 0 0-1.389 1.389v3.055a1.39 1.39 0 0 0 1.389 1.389h3.055a1.39 1.39 0 0 0 1.388-1.389zm-1.388 3.055h-3.055v-3.055h3.055v3.055zm0 0" class="cls-1" transform="translate(-49.942 -161.92)"/>
    <path id="Path_18" d="M58.111 294h-3.054a1.39 1.39 0 0 0-1.389 1.388v3.054a1.39 1.39 0 0 0 1.389 1.389h3.055a1.39 1.39 0 0 0 1.388-1.389v-3.054A1.39 1.39 0 0 0 58.111 294zm0 4.443h-3.054v-3.054h3.055v3.054zm0 0" class="cls-1" transform="translate(-49.942 -273.589)"/>
    <path id="Path_19" d="M222.875 119.389a.694.694 0 0 0 0-1.389h-4.786a.694.694 0 0 0 0 1.389zm0 0" class="cls-1" transform="translate(-202.302 -109.808)"/>
    <path id="Path_20" d="M172.362 119.389a.694.694 0 1 0-.491-.2.7.7 0 0 0 .491.2zm0 0" class="cls-1" transform="translate(-159.75 -109.808)"/>
    <path id="Path_21" d="M172.358 239.388h7.961a.694.694 0 1 0 0-1.388h-7.961a.694.694 0 0 0 0 1.388zm0 0" class="cls-1" transform="translate(-159.746 -221.477)"/>
</svg>
