<svg xmlns="http://www.w3.org/2000/svg" width="32" height="32" viewBox="0 0 32 32">
    <g>
        <path fill="#ffbb1a" d="M16 0A15.991 15.991 0 0 0 3.666 26.18c.006.008.006.018.013.026a16 16 0 0 0 6.042 4.508l.079.035c.187.079.377.152.566.223.075.028.149.057.225.084q.246.088.494.167c.106.034.212.068.319.1q.22.066.442.126c.13.035.261.068.393.1s.266.064.4.092c.149.032.3.06.452.088.122.022.243.046.365.066.168.027.337.049.507.07.109.014.218.03.328.042.192.02.386.035.58.048.09.006.18.016.27.021Q15.567 32 16 32c.289 0 .575-.009.859-.023.091 0 .18-.014.27-.021.194-.014.388-.028.58-.048.11-.012.219-.028.328-.042.17-.022.339-.043.507-.07.122-.02.244-.043.365-.066.151-.028.3-.056.452-.088.134-.029.267-.06.4-.092s.262-.065.393-.1c.148-.039.3-.082.442-.126.107-.032.213-.066.319-.1q.249-.08.494-.167l.225-.084c.19-.071.379-.145.566-.223l.079-.035a16 16 0 0 0 6.042-4.508c.006-.007.007-.018.013-.026A15.993 15.993 0 0 0 16 0zm6.484 29.451l-.023.012c-.19.092-.384.178-.579.262l-.132.057q-.256.107-.517.2c-.073.027-.145.054-.218.079-.154.055-.309.108-.465.158l-.292.089c-.139.042-.278.082-.419.119-.118.031-.238.06-.357.089s-.25.06-.377.087-.277.054-.416.079c-.113.021-.225.043-.338.061-.156.025-.314.044-.471.064-.1.013-.2.028-.3.038-.18.019-.361.031-.542.044-.081.005-.161.014-.242.019q-.4.021-.794.021t-.794-.021c-.081 0-.161-.013-.242-.019-.181-.012-.362-.025-.542-.044-.1-.011-.2-.026-.3-.038-.157-.02-.315-.039-.471-.064-.114-.018-.226-.04-.338-.061-.139-.025-.278-.051-.416-.079s-.252-.057-.377-.087-.239-.057-.357-.089c-.14-.037-.28-.078-.419-.119-.1-.029-.2-.058-.292-.089q-.234-.075-.465-.158l-.218-.079-.517-.2-.132-.056c-.2-.084-.389-.171-.58-.262l-.023-.012a15.006 15.006 0 0 1-4.838-3.73 11.772 11.772 0 0 1 7.7-8.074c.074.045.151.086.228.129.045.025.089.052.134.076.159.084.32.163.485.234.126.055.257.1.387.15l.077.028a6.807 6.807 0 0 0 4.613 0l.077-.028c.13-.048.261-.095.387-.15.165-.071.326-.15.485-.234l.134-.076c.076-.043.154-.083.229-.129a11.775 11.775 0 0 1 7.7 8.074 15.021 15.021 0 0 1-4.833 3.729zM10.133 11.733a5.867 5.867 0 1 1 9.058 4.916 5.649 5.649 0 0 1-.653.365l-.079.038a6 6 0 0 1-4.917 0l-.079-.038a5.606 5.606 0 0 1-.653-.365 5.863 5.863 0 0 1-2.677-4.916zm17.989 12.973a12.851 12.851 0 0 0-7.492-7.826 6.934 6.934 0 1 0-9.26 0 12.852 12.852 0 0 0-7.492 7.826A14.929 14.929 0 1 1 30.933 16a14.849 14.849 0 0 1-2.811 8.706z"/>
    </g>
</svg>
